<?xml version="1.0" standalone="no"?>
<!DOCTYPE svg PUBLIC "-//W3C//DTD SVG 20010904//EN"
 "http://www.w3.org/TR/2001/REC-SVG-20010904/DTD/svg10.dtd">
<svg version="1.0" xmlns="http://www.w3.org/2000/svg"
 width="1024.000000pt" height="1024.000000pt" viewBox="0 0 1024.000000 1024.000000"
 preserveAspectRatio="xMidYMid meet">

<g transform="translate(0.000000,1024.000000) scale(0.100000,-0.100000)"
fill="#000000" stroke="none">
<path d="M7900 9210 l0 -350 60 0 60 0 0 128 c1 151 10 199 45 230 32 27 84
29 116 3 23 -19 24 -24 27 -190 l3 -171 62 0 62 0 -5 194 c-5 176 -7 197 -26
222 -39 52 -70 68 -143 72 -65 4 -70 3 -104 -28 l-37 -32 0 136 0 136 -60 0
-60 0 0 -350z"/>
<path d="M2067 9540 c-148 -38 -248 -173 -248 -336 0 -90 11 -134 53 -204 78
-130 266 -186 410 -122 58 25 134 94 160 145 10 21 18 40 16 42 -2 2 -32 7
-68 13 -44 7 -66 6 -69 -1 -10 -27 -76 -87 -108 -98 -86 -28 -193 15 -235 94
-32 59 -32 184 -1 243 27 50 70 88 119 104 72 24 169 -8 210 -70 l24 -37 63
10 c34 6 63 11 65 12 2 2 -5 20 -16 42 -29 55 -89 112 -149 140 -59 27 -165
38 -226 23z"/>
<path d="M5254 9534 c-161 -49 -258 -223 -225 -402 23 -123 81 -200 191 -251
46 -22 69 -26 145 -26 76 0 99 4 145 26 79 37 115 72 150 143 22 44 33 83 37
134 l6 72 -167 0 -166 0 0 -55 0 -55 99 0 c113 0 117 -4 58 -75 -85 -104 -260
-96 -334 16 -26 39 -28 50 -28 138 0 84 3 101 24 134 70 114 231 129 326 31
l43 -44 44 15 c23 9 49 17 56 20 19 7 -12 57 -62 102 -87 79 -231 111 -342 77z"/>
<path d="M7560 9415 l0 -75 -40 0 -40 0 0 -50 0 -50 39 0 39 0 4 -137 c4 -155
16 -190 71 -223 24 -15 50 -20 105 -20 l72 0 0 55 0 55 -43 0 c-69 0 -77 15
-77 153 l0 117 60 0 60 0 0 56 0 56 -60 -4 -60 -4 0 73 0 73 -65 0 -65 0 0
-75z"/>
<path d="M2630 9334 c-42 -18 -77 -49 -95 -85 -14 -26 -14 -26 39 -41 l53 -15
32 29 c62 55 161 23 161 -53 0 -17 -8 -19 -93 -19 -77 0 -100 -4 -137 -22
-107 -55 -107 -202 0 -255 70 -36 167 -26 222 24 17 15 18 14 18 -10 0 -26 2
-27 55 -27 l55 0 0 181 c0 168 -2 184 -22 220 -43 78 -191 115 -288 73z m190
-287 c0 -46 -59 -97 -114 -97 -14 0 -37 11 -53 24 -25 21 -26 26 -15 50 15 34
43 45 120 45 58 1 62 0 62 -22z"/>
<path d="M3225 9336 c-17 -7 -36 -20 -44 -29 -19 -24 -31 -21 -31 8 0 24 -3
25 -55 25 l-55 0 0 -240 0 -240 64 0 65 0 3 156 3 156 33 29 c25 23 42 29 77
29 l45 0 0 60 0 60 -37 0 c-21 -1 -52 -7 -68 -14z"/>
<path d="M3515 9339 c-86 -25 -155 -129 -154 -234 0 -112 47 -191 137 -232
102 -47 243 -16 302 68 12 16 21 32 19 34 -2 2 -28 12 -57 23 -45 18 -54 18
-59 6 -17 -44 -122 -58 -167 -23 -27 22 -62 79 -49 80 5 0 83 0 176 -1 l167
-1 0 63 c-1 102 -47 177 -132 212 -40 17 -134 20 -183 5z m144 -103 c25 -13
51 -52 51 -76 0 -6 -47 -10 -110 -10 -118 0 -122 2 -93 50 28 49 96 65 152 36z"/>
<path d="M4025 9331 c-157 -72 -190 -304 -60 -419 67 -59 157 -77 246 -50 41
12 112 66 129 98 9 17 4 21 -44 36 l-54 17 -32 -26 c-56 -47 -152 -30 -185 33
-8 16 -15 33 -15 37 0 4 79 7 175 5 l175 -3 0 52 c0 103 -46 184 -124 220 -55
25 -157 25 -211 0z m176 -110 c16 -16 29 -39 29 -50 0 -20 -5 -21 -110 -21
-60 0 -110 2 -110 5 0 16 33 66 52 79 12 9 42 16 66 16 35 0 49 -6 73 -29z"/>
<path d="M4620 9334 c-19 -8 -42 -22 -52 -31 -17 -15 -18 -14 -18 10 0 26 -2
27 -60 27 l-59 0 0 -240 0 -240 64 0 65 0 0 130 c0 181 23 229 117 240 l46 5
0 55 0 55 -34 2 c-19 2 -50 -4 -69 -13z"/>
<path d="M5970 9339 c-14 -6 -35 -20 -47 -31 l-22 -21 -7 27 c-6 24 -10 26
-60 26 l-54 0 0 -240 0 -240 65 0 65 0 0 140 c0 157 9 189 60 215 16 8 45 15
65 15 l35 0 0 60 0 60 -37 -1 c-21 0 -49 -5 -63 -10z"/>
<path d="M6250 9330 c-56 -26 -95 -63 -123 -115 -31 -57 -30 -173 0 -232 42
-78 138 -133 233 -133 56 0 131 26 172 60 20 17 49 55 64 86 23 47 26 63 22
122 -6 76 -22 114 -69 160 -49 48 -95 66 -179 69 -60 3 -84 -1 -120 -17z m197
-124 c33 -30 37 -39 41 -92 5 -76 -22 -122 -86 -144 -37 -13 -47 -13 -84 0
-54 20 -80 56 -86 122 -7 89 47 148 136 148 34 0 49 -6 79 -34z"/>
<path d="M6650 9333 c0 -4 36 -113 81 -241 l82 -233 61 3 61 3 50 142 c27 78
53 139 56 135 3 -4 28 -69 55 -144 l48 -138 60 0 61 0 79 228 c43 125 81 233
83 240 4 9 -12 12 -59 12 l-64 0 -49 -155 c-27 -86 -52 -152 -56 -148 -3 5
-28 74 -55 156 l-48 147 -57 0 -57 0 -48 -137 c-26 -76 -51 -147 -54 -158 -5
-14 -21 25 -56 135 l-50 155 -62 3 c-34 2 -62 -1 -62 -5z"/>
<path d="M3863 8025 c-152 -47 -272 -195 -281 -347 -7 -110 29 -203 134 -345
14 -19 14 -29 3 -79 -7 -31 -20 -64 -28 -74 -9 -9 -47 -24 -86 -33 -212 -48
-520 -238 -821 -505 -116 -104 -162 -167 -257 -357 -87 -175 -247 -530 -247
-548 0 -8 6 -20 13 -26 11 -9 5 -20 -29 -57 -112 -120 -113 -255 -1 -312 37
-19 53 -22 91 -17 57 9 103 39 130 85 17 28 21 52 21 117 0 77 1 82 20 77 11
-2 25 -1 31 3 5 5 56 85 112 178 56 94 142 233 190 310 l88 140 119 65 c66 36
147 81 179 99 l59 34 -6 -29 c-11 -52 -108 -506 -138 -649 -16 -77 -31 -165
-33 -195 -2 -30 -12 -93 -21 -139 -19 -92 -16 -172 9 -231 13 -32 10 -59 -35
-340 -27 -168 -60 -386 -75 -485 -26 -179 -27 -182 -156 -544 -71 -201 -164
-462 -205 -580 l-75 -216 24 -18 25 -18 -75 -72 c-77 -74 -164 -179 -175 -210
-5 -13 10 -30 66 -70 87 -64 237 -165 315 -213 54 -32 55 -34 27 -34 -17 0
-41 -7 -53 -16 l-22 -15 0 -350 c0 -347 -3 -381 -34 -401 -6 -4 -253 -8 -548
-8 -525 0 -539 -1 -558 -20 -19 -19 -20 -33 -20 -275 0 -249 0 -255 22 -275
l22 -20 2181 0 c2101 0 2183 1 2198 18 16 17 17 123 17 1319 0 1266 -1 1301
-19 1324 l-19 24 -286 0 c-260 0 -287 -2 -303 -18 -15 -15 -19 -39 -21 -140
-3 -98 -6 -124 -20 -134 -11 -9 -64 -13 -180 -13 l-163 0 20 26 c26 33 26 76
2 130 -25 55 -61 78 -215 140 -130 52 -186 87 -186 118 0 11 9 16 29 16 20 0
31 6 35 18 16 52 186 1181 186 1235 0 117 -64 214 -173 266 -34 15 -204 79
-377 141 -173 62 -316 114 -318 115 -1 1 32 121 73 268 41 146 75 272 75 281
0 9 3 16 6 16 4 0 52 -44 108 -98 119 -114 159 -137 222 -127 84 12 341 157
542 306 85 64 96 76 93 104 0 6 19 16 44 23 57 15 129 84 145 139 17 54 -1
114 -49 165 -32 35 -45 41 -89 46 -72 6 -131 -29 -164 -97 l-23 -49 -216 -111
c-163 -83 -219 -107 -226 -98 -6 6 -87 141 -182 299 -95 158 -194 317 -221
355 -28 37 -48 74 -45 83 2 8 7 32 11 53 6 36 7 37 53 37 109 0 161 67 161
206 0 79 1 82 25 88 37 9 40 29 11 74 -14 22 -32 67 -40 99 -9 33 -27 86 -41
117 l-25 57 21 29 c17 23 21 37 16 72 -7 54 -38 82 -107 97 -69 15 -235 13
-287 -4z m426 -3131 l53 -6 -6 -61 c-4 -34 -32 -264 -62 -512 -29 -247 -54
-462 -54 -477 0 -25 4 -28 33 -28 l34 0 -20 -57 c-30 -83 -37 -315 -11 -344
17 -19 16 -19 -29 -19 -80 0 -77 21 -77 -504 0 -413 -2 -461 -17 -478 -15 -17
-43 -18 -484 -18 l-469 0 12 25 c23 51 -27 147 -96 182 -17 9 -51 21 -76 28
-33 8 -51 20 -67 44 -31 46 -63 135 -63 176 0 33 1 34 38 32 45 -2 13 -68 332
662 l243 555 102 405 c57 223 108 417 113 431 l10 25 253 -27 c140 -15 278
-30 308 -34z"/>
<path d="M7065 2775 c-93 -21 -168 -52 -247 -104 -118 -77 -260 -242 -300
-349 -10 -27 -9 -34 7 -52 18 -20 23 -20 704 -18 l686 3 9 28 c8 23 5 37 -19
83 -108 200 -314 362 -522 408 -85 19 -233 19 -318 1z"/>
</g>
</svg>
