<?xml version="1.0" standalone="no"?>
<!DOCTYPE svg PUBLIC "-//W3C//DTD SVG 20010904//EN"
 "http://www.w3.org/TR/2001/REC-SVG-20010904/DTD/svg10.dtd">
<svg version="1.0" xmlns="http://www.w3.org/2000/svg"
 width="1024.000000pt" height="1024.000000pt" viewBox="0 0 1024.000000 1024.000000"
 preserveAspectRatio="xMidYMid meet">

<g transform="translate(0.000000,1024.000000) scale(0.100000,-0.100000)"
fill="#000000" stroke="none">
<path d="M3371 9531 c-42 -42 -19 -123 38 -136 73 -16 128 64 84 123 -27 36
-92 43 -122 13z"/>
<path d="M8575 9538 c-3 -7 -4 -175 -3 -373 l3 -360 68 -3 67 -3 0 161 c0 173
9 214 51 244 37 25 105 21 134 -9 25 -24 25 -27 25 -197 0 -95 4 -179 9 -186
5 -9 27 -12 72 -10 l64 3 3 140 c3 155 -10 264 -36 310 -51 86 -205 113 -281
49 -16 -13 -31 -24 -35 -24 -3 0 -7 60 -8 133 l-3 132 -63 3 c-44 2 -64 -1
-67 -10z"/>
<path d="M2883 9533 c-10 -4 -13 -88 -13 -374 l0 -369 70 0 70 0 0 363 c0 269
-3 366 -12 375 -12 12 -91 15 -115 5z"/>
<path d="M3117 9534 c-4 -4 -7 -173 -7 -376 l0 -368 70 0 70 0 -2 373 -3 372
-60 3 c-34 2 -64 0 -68 -4z"/>
<path d="M1035 9518 c-3 -7 -4 -175 -3 -373 l3 -360 65 0 65 0 0 370 0 370
-63 3 c-44 2 -64 -1 -67 -10z"/>
<path d="M6135 9518 c-3 -7 -4 -173 -3 -368 l3 -355 65 0 65 0 3 223 c1 122 6
222 10 222 4 -1 23 -29 43 -63 20 -34 62 -106 93 -159 l57 -98 42 0 42 0 100
173 100 172 5 -230 5 -230 68 -3 67 -3 0 366 0 366 -72 -3 -73 -3 -111 -203
c-61 -111 -115 -207 -121 -213 -12 -12 -47 45 -168 280 l-70 136 -73 3 c-52 2
-74 -1 -77 -10z"/>
<path d="M5485 9468 c-2 -7 -6 -42 -7 -78 l-3 -65 -45 -5 -45 -5 0 -55 0 -55
41 -3 41 -3 6 -144 c6 -154 16 -192 63 -236 34 -32 135 -39 189 -14 39 19 41
31 16 98 -9 24 -14 26 -30 17 -33 -17 -69 -12 -86 14 -12 19 -15 48 -13 142
l3 119 65 5 65 5 0 55 0 55 -65 5 -65 5 -5 75 -5 75 -58 3 c-40 2 -59 -1 -62
-10z"/>
<path d="M7638 9403 l-3 -78 -45 -5 c-35 -4 -45 -9 -44 -22 1 -10 2 -34 3 -53
1 -34 2 -35 40 -35 l38 0 6 -67 c4 -38 7 -109 7 -159 0 -78 3 -96 23 -125 41
-61 119 -84 198 -58 57 19 64 30 48 81 -15 44 -17 45 -71 32 -19 -4 -32 0 -47
15 -20 20 -21 30 -19 149 l3 127 65 5 65 5 0 50 0 50 -65 5 -65 5 -3 78 -3 77
-64 0 -64 0 -3 -77z"/>
<path d="M1930 9390 l0 -80 -45 0 -45 0 0 -54 0 -55 43 -3 42 -3 5 -150 c4
-128 8 -155 26 -185 42 -72 119 -97 205 -69 55 19 58 24 45 77 -13 49 -15 51
-59 38 -19 -6 -34 -3 -52 8 -25 16 -25 19 -25 151 l0 134 63 3 62 3 0 50 0 50
-62 3 -62 3 -3 77 -3 77 -67 3 -68 3 0 -81z"/>
<path d="M7152 9322 c-57 -21 -125 -70 -130 -94 -2 -9 18 -25 48 -42 44 -24
53 -26 63 -13 26 31 63 47 112 47 59 0 95 -21 95 -54 0 -29 -9 -33 -118 -46
-153 -19 -222 -72 -222 -173 0 -59 24 -103 72 -132 26 -16 51 -20 114 -20 71
0 85 3 122 28 l42 27 0 -25 c0 -24 2 -25 65 -25 l65 0 0 188 c0 103 -5 203
-10 223 -28 99 -190 156 -318 111z m185 -324 c-8 -56 -42 -89 -101 -95 -59 -7
-96 15 -96 57 0 39 33 61 108 70 101 13 95 15 89 -32z"/>
<path d="M8157 9326 c-76 -21 -127 -63 -164 -135 -25 -47 -33 -76 -33 -115 0
-208 179 -334 381 -269 56 18 139 87 139 115 0 9 -23 27 -52 41 l-53 26 -23
-29 c-42 -54 -141 -62 -198 -17 -75 58 -70 199 8 247 22 13 50 20 87 20 50 0
57 -3 91 -39 l37 -39 52 30 c28 16 51 33 51 36 0 19 -43 68 -81 94 -73 49
-147 59 -242 34z"/>
<path d="M4415 9317 c-132 -44 -194 -128 -195 -263 0 -86 31 -156 93 -209 97
-83 262 -85 360 -5 62 53 64 63 10 98 l-47 31 -33 -29 c-62 -55 -157 -53 -210
5 -59 63 -56 65 151 65 213 0 212 -1 203 84 -13 130 -107 221 -240 232 -29 2
-70 -2 -92 -9z m167 -146 c50 -56 43 -61 -97 -61 -129 0 -135 2 -114 41 21 39
69 60 128 56 46 -3 59 -9 83 -36z"/>
<path d="M5054 9319 c-16 -5 -41 -20 -54 -34 -30 -32 -36 -31 -35 3 0 27 -1
27 -65 27 l-65 0 0 -260 0 -260 65 0 65 0 5 182 c6 213 10 222 99 231 46 4 53
2 81 -26 l30 -30 0 -169 c0 -92 4 -174 9 -181 5 -9 26 -12 67 -10 l59 3 3 183
c1 113 -2 199 -9 225 -25 95 -143 149 -255 116z"/>
<path d="M1467 9290 c-26 -16 -49 -30 -51 -30 -1 0 -2 10 -2 23 1 21 -3 22
-64 22 l-65 0 1 -253 c1 -279 -1 -272 64 -272 84 0 80 -8 80 182 0 197 7 221
69 238 56 15 99 3 122 -34 17 -27 19 -52 19 -203 l0 -173 70 0 70 0 0 170 c0
192 -10 257 -48 302 -35 42 -79 58 -155 58 -53 0 -71 -5 -110 -30z"/>
<path d="M2415 9301 c-105 -47 -155 -127 -155 -246 0 -123 41 -194 141 -244
104 -52 230 -41 309 26 66 57 67 67 12 98 -36 20 -51 24 -62 16 -58 -43 -78
-51 -125 -51 -74 0 -135 45 -135 101 0 5 79 9 190 9 l190 0 6 25 c9 35 -4 113
-26 156 -22 43 -81 96 -126 115 -49 20 -170 18 -219 -5z m207 -130 c50 -56 43
-61 -97 -61 -137 0 -144 4 -104 54 29 37 55 46 118 42 46 -2 59 -8 83 -35z"/>
<path d="M3364 9311 c-2 -2 -4 -121 -4 -263 l0 -258 70 0 70 0 -2 258 -3 257
-63 5 c-35 3 -65 3 -68 1z"/>
<path d="M3713 9295 c-111 -56 -166 -192 -129 -319 21 -73 100 -158 161 -175
94 -26 185 -10 244 43 l24 21 -6 -54 c-4 -29 -13 -64 -21 -76 -46 -71 -206
-74 -275 -5 -16 17 -32 30 -35 30 -13 0 -85 -52 -90 -66 -9 -22 41 -71 101
-100 40 -18 79 -28 135 -32 142 -9 249 42 300 146 22 45 23 57 26 321 4 304 7
291 -65 291 -60 0 -73 -8 -73 -43 l0 -31 -27 26 c-44 40 -67 48 -145 48 -59 0
-84 -5 -125 -25z m253 -139 c40 -39 44 -48 44 -92 0 -89 -54 -146 -139 -146
-90 0 -150 48 -158 126 -9 88 59 156 155 156 51 0 57 -3 98 -44z"/>
<path d="M7162 7458 c-7 -7 -12 -33 -12 -58 0 -86 -58 -80 752 -80 678 0 716
1 731 18 26 29 32 78 13 107 l-16 25 -728 0 c-553 0 -731 -3 -740 -12z"/>
<path d="M1955 7275 c-116 -25 -242 -94 -328 -178 -86 -84 -135 -162 -172
-270 -83 -247 -5 -542 191 -728 159 -150 403 -214 602 -159 198 55 359 186
446 364 54 110 70 184 70 316 0 195 -57 335 -194 470 -86 86 -153 128 -260
166 -95 33 -249 41 -355 19z m158 -1342 c-13 -2 -33 -2 -45 0 -13 2 -3 4 22 4
25 0 35 -2 23 -4z"/>
<path d="M4241 7213 c-46 -23 -71 -67 -71 -128 0 -91 54 -145 145 -145 85 0
143 57 146 142 5 113 -114 183 -220 131z"/>
<path d="M7307 7113 c-4 -3 -7 -267 -7 -585 l0 -578 330 0 c182 0 333 -1 338
-2 4 -2 9 56 12 127 l5 130 80 0 80 0 3 -127 3 -128 349 0 350 0 -2 583 -3
582 -766 3 c-421 1 -769 -1 -772 -5z m351 -335 l3 -98 -95 0 -95 0 -3 91 c-2
50 1 94 7 100 5 5 48 8 95 7 l85 -3 3 -97z m331 88 c8 -9 11 -45 9 -98 l-3
-83 -97 -3 -98 -3 0 94 c0 52 3 97 7 100 3 4 43 7 88 7 59 0 86 -4 94 -14z
m349 -89 l3 -98 -103 3 -102 3 2 95 c1 52 2 96 2 98 0 1 44 1 98 0 l97 -3 3
-98z m331 89 c8 -9 11 -45 9 -98 l-3 -83 -97 -3 -98 -3 0 94 c0 52 3 97 7 100
3 4 43 7 88 7 59 0 86 -4 94 -14z m-1011 -418 l-3 -93 -91 -3 -92 -3 -4 83
c-2 46 -2 89 0 96 3 8 32 12 98 12 l95 0 -3 -92z m337 -3 l0 -90 -97 -3 -98
-3 0 96 0 96 98 -3 97 -3 0 -90z m343 3 l-3 -93 -97 -3 -97 -3 -3 92 c-2 50
-1 93 1 95 2 2 49 4 103 4 l99 0 -3 -92z m337 60 c3 -18 5 -60 3 -93 l-3 -60
-95 0 -95 0 -3 93 -3 92 95 0 95 0 6 -32z"/>
<path d="M4893 6470 c-28 -11 -43 -40 -43 -83 0 -70 89 -99 136 -43 32 37 30
71 -5 107 -30 30 -50 34 -88 19z"/>
<path d="M5962 6334 c-40 -20 -62 -60 -62 -110 0 -28 8 -44 34 -70 30 -30 40
-34 86 -34 43 0 56 5 80 28 16 16 32 45 35 64 17 91 -88 165 -173 122z"/>
<path d="M3807 5969 c7 -7 15 -10 18 -7 3 3 -2 9 -12 12 -14 6 -15 5 -6 -5z"/>
<path d="M4882 5708 c-28 -14 -38 -51 -23 -84 11 -24 11 -24 175 -24 91 0 216
-7 278 -15 151 -20 339 -74 448 -131 92 -47 125 -52 144 -22 16 26 0 46 -70
93 -102 69 -315 143 -494 171 -129 20 -428 28 -458 12z"/>
<path d="M4591 5637 c-55 -28 -52 -79 6 -85 58 -6 109 63 64 88 -25 13 -41 13
-70 -3z"/>
<path d="M4293 5530 c-35 -14 -57 -54 -43 -79 16 -31 79 -23 102 13 14 21 8
55 -11 66 -22 11 -19 11 -48 0z"/>
<path d="M1301 5494 c-32 -27 -41 -67 -21 -103 24 -46 30 -46 848 -46 l774 0
24 28 c50 59 15 129 -72 141 -26 3 -379 6 -785 6 l-737 0 -31 -26z"/>
<path d="M7140 5498 c-27 -30 -26 -73 5 -104 l24 -24 827 2 826 3 24 28 c31
36 30 52 -5 88 l-29 29 -826 0 -825 0 -21 -22z"/>
<path d="M3962 5317 c-26 -27 -28 -50 -7 -67 35 -29 114 41 90 79 -11 19 -61
12 -83 -12z"/>
<path d="M4875 5239 c-138 -30 -190 -46 -275 -81 -194 -80 -311 -159 -447
-301 -102 -107 -140 -161 -215 -307 -83 -162 -113 -275 -126 -475 -24 -371
100 -703 363 -974 203 -210 403 -316 705 -377 67 -13 117 -15 240 -11 316 11
555 104 807 312 109 90 177 173 259 317 85 148 105 197 145 353 29 111 31 133
32 290 1 164 -1 175 -35 305 -38 147 -108 307 -182 418 -60 90 -240 264 -349
336 -132 88 -305 154 -500 191 -87 17 -354 19 -422 4z m460 -348 c165 -44 302
-126 436 -261 187 -188 280 -431 265 -696 -27 -488 -411 -861 -906 -882 -272
-11 -502 74 -693 257 -253 241 -347 562 -266 901 79 331 343 596 683 686 82
22 107 24 246 20 117 -3 174 -9 235 -25z"/>
<path d="M5575 4402 c-38 -8 -73 -42 -305 -292 -127 -137 -235 -250 -240 -250
-5 0 -44 39 -87 88 -119 133 -201 211 -230 218 -35 9 -70 -12 -106 -63 l-29
-41 28 -53 c19 -36 91 -117 214 -242 166 -168 188 -187 218 -187 43 0 87 41
261 241 356 408 381 439 381 485 0 51 -60 106 -105 96z"/>
<path d="M6370 5151 c-22 -43 -7 -101 27 -101 8 0 6 7 -7 20 -22 22 -24 37
-10 74 11 30 5 34 -10 7z"/>
<path d="M3733 5095 c-23 -16 -37 -57 -28 -86 8 -25 56 -25 78 -1 22 24 23 88
1 96 -22 9 -27 8 -51 -9z"/>
<path d="M7136 5048 c-22 -31 -20 -70 4 -96 l21 -22 619 0 619 0 21 27 c25 32
21 79 -7 101 -13 9 -157 12 -639 12 l-623 0 -15 -22z"/>
<path d="M1325 5033 c-59 -15 -75 -85 -29 -122 26 -21 36 -21 569 -21 533 0
543 0 569 21 36 28 36 80 0 108 -26 21 -35 21 -558 20 -292 -1 -540 -4 -551
-6z"/>
<path d="M6179 4982 c-26 -23 -31 -33 -25 -55 13 -54 100 -43 120 16 8 21 6
31 -9 47 -25 27 -49 25 -86 -8z"/>
<path d="M3533 4822 c-19 -12 -34 -61 -27 -88 8 -32 48 -42 74 -19 27 25 27
90 1 105 -23 12 -32 12 -48 2z"/>
<path d="M1341 4580 c-46 -11 -63 -31 -63 -76 0 -29 6 -44 27 -61 l27 -24 650
3 650 3 19 24 c43 53 13 117 -61 132 -56 10 -1203 10 -1249 -1z"/>
<path d="M3365 4506 c-41 -29 -10 -116 41 -116 31 0 58 41 49 72 -16 53 -53
71 -90 44z"/>
<path d="M3323 4182 c-34 -22 -35 -104 -1 -126 28 -17 68 18 68 60 0 61 -29
90 -67 66z"/>
<path d="M6778 4030 c-22 -17 -26 -29 -32 -112 -26 -348 -131 -651 -311 -889
-72 -97 -233 -259 -325 -328 -240 -182 -499 -298 -780 -351 -156 -30 -194 -57
-134 -97 23 -15 34 -15 101 -4 217 37 428 104 623 200 383 188 727 592 865
1016 45 139 62 218 80 375 19 160 19 166 -5 190 -25 25 -50 25 -82 0z"/>
<path d="M3327 3852 c-39 -43 -9 -136 41 -130 53 6 61 79 15 130 -20 23 -36
23 -56 0z"/>
<path d="M3422 3524 c-26 -18 -29 -59 -6 -92 17 -24 53 -29 72 -10 19 19 15
82 -6 101 -23 21 -32 21 -60 1z"/>
<path d="M7626 3505 c-133 -47 -203 -211 -146 -343 53 -122 195 -188 322 -150
55 16 126 83 154 143 51 108 19 241 -74 312 -70 53 -172 68 -256 38z"/>
<path d="M2845 3303 c-19 -109 -58 -159 -155 -194 -34 -12 -57 -25 -53 -29 4
-4 33 -15 63 -25 75 -24 121 -74 144 -155 10 -34 21 -58 26 -54 4 5 15 36 25
69 20 72 71 124 141 146 25 8 46 18 45 23 0 5 -19 16 -43 24 -87 29 -131 79
-153 176 -14 62 -32 70 -40 19z"/>
<path d="M3529 3219 c-13 -25 -4 -82 16 -99 7 -6 26 -10 42 -8 25 3 28 8 31
41 2 23 -3 48 -13 63 -20 30 -60 32 -76 3z"/>
<path d="M1928 3003 c7 -3 16 -2 19 1 4 3 -2 6 -13 5 -11 0 -14 -3 -6 -6z"/>
<path d="M1968 2993 c7 -3 16 -2 19 1 4 3 -2 6 -13 5 -11 0 -14 -3 -6 -6z"/>
<path d="M3716 2935 c-20 -20 -20 -38 -1 -75 17 -33 59 -49 84 -33 26 16 25
65 -1 90 -33 30 -63 37 -82 18z"/>
<path d="M3944 2676 c-19 -50 44 -109 92 -88 33 16 32 54 -2 81 -31 24 -82 28
-90 7z"/>
<path d="M3693 2510 c-39 -23 -45 -63 -13 -80 33 -18 94 16 98 54 6 48 -31 59
-85 26z"/>
<path d="M4250 2502 c-30 -24 -19 -58 25 -79 81 -39 134 41 54 82 -37 19 -52
19 -79 -3z"/>
<path d="M4556 2367 c-27 -20 -16 -50 27 -70 69 -34 128 13 76 62 -26 24 -76
28 -103 8z"/>
<path d="M8360 2346 c0 -2 8 -10 18 -17 15 -13 16 -12 3 4 -13 16 -21 21 -21
13z"/>
<path d="M4901 2317 c-13 -6 -29 -20 -35 -30 -17 -29 24 -57 83 -57 52 0 71
13 71 47 0 37 -76 63 -119 40z"/>
<path d="M3466 2298 c-18 -25 -19 -37 -7 -56 21 -33 98 27 84 66 -8 21 -60 14
-77 -10z"/>
<path d="M6964 2298 c-4 -6 -15 -55 -25 -109 -24 -137 -58 -206 -135 -278 -67
-63 -133 -95 -234 -112 -99 -17 -100 -18 -100 -44 0 -26 -6 -24 144 -59 90
-21 147 -50 201 -103 56 -56 92 -130 119 -246 20 -86 23 -92 48 -95 23 -3 28
1 34 25 45 196 63 240 127 310 53 57 134 98 249 125 86 20 113 37 91 59 -5 5
-46 18 -91 29 -218 52 -323 173 -362 415 -6 38 -16 75 -22 82 -13 16 -34 17
-44 1z"/>
<path d="M8458 2293 c7 -3 16 -2 19 1 4 3 -2 6 -13 5 -11 0 -14 -3 -6 -6z"/>
<path d="M3276 2099 c-31 -24 -40 -52 -26 -79 26 -48 90 -8 90 56 0 40 -29 50
-64 23z"/>
<path d="M3077 1882 c-10 -10 -17 -35 -17 -56 0 -36 1 -37 32 -34 40 4 64 41
54 81 -8 32 -44 37 -69 9z"/>
<path d="M2652 1650 c-43 -26 -76 -99 -68 -145 14 -74 83 -135 154 -135 70 0
136 60 147 135 9 56 -23 128 -66 150 -42 22 -127 19 -167 -5z"/>
<path d="M4124 1411 c-80 -36 -131 -130 -118 -216 32 -215 334 -241 403 -36
56 168 -122 326 -285 252z"/>
</g>
</svg>
