<?xml version="1.0" standalone="no"?>
<!DOCTYPE svg PUBLIC "-//W3C//DTD SVG 20010904//EN"
 "http://www.w3.org/TR/2001/REC-SVG-20010904/DTD/svg10.dtd">
<svg version="1.0" xmlns="http://www.w3.org/2000/svg"
 width="1024.000000pt" height="1024.000000pt" viewBox="0 0 1024.000000 1024.000000"
 preserveAspectRatio="xMidYMid meet">

<g transform="translate(0.000000,1024.000000) scale(0.100000,-0.100000)"
fill="#000000" stroke="none">
<path d="M8922 9530 c-53 -22 -51 -97 3 -122 52 -24 106 32 85 87 -7 19 -50
49 -63 44 -1 0 -12 -4 -25 -9z"/>
<path d="M1680 9225 l0 -305 50 0 c47 0 50 2 50 26 l0 25 36 -28 c47 -35 142
-44 197 -18 51 24 104 86 118 137 24 90 -9 202 -74 252 -66 51 -194 53 -246 5
l-21 -20 0 116 0 115 -55 0 -55 0 0 -305z m275 21 c86 -36 100 -167 23 -220
-31 -22 -96 -20 -134 3 -77 47 -65 180 19 216 41 18 50 18 92 1z"/>
<path d="M4770 9225 l0 -305 55 0 55 0 0 63 c0 49 4 68 18 80 10 10 21 17 24
17 2 0 33 -36 67 -80 l62 -80 71 0 c55 0 68 3 61 13 -6 6 -50 61 -98 120 l-88
109 92 92 91 92 -72 -4 -73 -3 -77 -78 -78 -78 0 173 0 174 -55 0 -55 0 0
-305z"/>
<path d="M7780 9225 l0 -305 55 0 55 0 0 305 0 305 -55 0 -55 0 0 -305z"/>
<path d="M770 9220 l0 -300 198 0 197 0 -1 52 -2 53 -141 3 -141 3 0 244 0
245 -55 0 -55 0 0 -300z"/>
<path d="M3270 9220 l0 -300 55 0 55 0 2 192 3 192 74 -142 73 -142 49 0 48 0
34 63 c19 34 53 97 76 140 l41 79 0 -191 0 -191 55 0 55 0 0 300 0 301 -57 -3
-57 -3 -94 -177 c-52 -98 -98 -176 -102 -173 -5 3 -50 84 -100 180 l-92 175
-59 0 -59 0 0 -300z"/>
<path d="M6423 9503 c-4 -10 -59 -145 -124 -300 l-117 -283 62 0 62 0 24 65
24 65 127 0 127 0 23 -65 23 -65 62 0 62 0 -121 300 -121 300 -54 0 c-41 0
-54 -4 -59 -17z m105 -248 l40 -100 -80 -3 c-44 -2 -82 -1 -84 1 -4 4 60 178
72 199 8 13 8 14 52 -97z"/>
<path d="M5718 9403 l-3 -58 -47 -3 -48 -3 0 -45 0 -44 50 0 50 0 0 -122 c0
-137 7 -160 59 -195 34 -23 73 -28 130 -17 30 6 31 9 31 55 l0 48 -34 -6 c-18
-3 -43 0 -55 6 -19 11 -21 20 -21 121 l0 110 55 0 55 0 0 45 0 45 -55 0 -55 0
0 60 0 60 -55 0 -54 0 -3 -57z"/>
<path d="M1346 9349 c-49 -12 -92 -43 -111 -79 -26 -50 -20 -60 30 -60 37 0
50 5 69 26 33 39 99 39 132 1 40 -47 33 -57 -38 -50 -77 7 -132 -7 -176 -44
-57 -48 -61 -145 -7 -199 48 -48 154 -50 216 -5 35 26 43 26 36 1 -5 -18 0
-20 50 -20 l55 0 -4 153 c-4 157 -9 178 -52 225 -43 48 -125 69 -200 51z m144
-265 c0 -64 -113 -111 -162 -67 -23 21 -23 38 2 63 27 27 160 30 160 4z"/>
<path d="M2348 9346 c-100 -27 -158 -106 -158 -213 1 -135 91 -223 230 -223
114 0 196 64 219 171 37 171 -118 313 -291 265z m135 -108 c28 -15 57 -69 57
-108 0 -40 -29 -93 -60 -110 -31 -17 -92 -15 -128 4 -85 44 -78 182 11 222 33
14 85 11 120 -8z"/>
<path d="M4117 9346 c-55 -15 -94 -47 -113 -93 -8 -18 -14 -35 -14 -38 0 -3
23 -5 51 -5 42 0 54 4 70 24 38 49 127 35 147 -22 l11 -31 -62 6 c-80 7 -139
-9 -185 -52 -35 -31 -37 -37 -37 -94 0 -54 3 -64 31 -91 54 -55 156 -58 225
-9 l29 20 0 -20 c0 -18 6 -21 50 -21 l50 0 0 148 c0 122 -4 154 -19 188 -22
49 -62 80 -122 93 -53 13 -53 13 -112 -3z m143 -270 c0 -38 -52 -76 -104 -76
-47 0 -66 13 -66 46 0 36 36 54 107 54 60 0 63 -1 63 -24z"/>
<path d="M5345 9349 c-97 -23 -157 -105 -157 -217 -1 -76 16 -124 58 -166 41
-41 84 -56 156 -56 96 1 162 37 187 103 l11 27 -55 0 c-42 0 -60 -5 -75 -20
-14 -14 -33 -20 -66 -20 -37 0 -51 5 -75 29 -56 57 -47 61 127 61 l157 0 -6
58 c-9 109 -66 182 -157 201 -28 6 -54 11 -58 10 -4 -1 -25 -5 -47 -10z m122
-111 c11 -13 23 -31 26 -40 6 -16 -3 -18 -99 -18 l-105 0 16 30 c20 38 41 49
96 50 35 0 50 -5 66 -22z"/>
<path d="M7025 9348 c-21 -5 -50 -18 -62 -30 l-23 -21 0 24 c0 22 -4 24 -50
24 l-50 0 0 -212 0 -213 55 0 55 0 0 141 c0 77 4 149 10 159 14 25 71 43 101
31 49 -18 54 -35 57 -188 l4 -143 55 0 55 0 -3 158 c-4 136 -7 162 -25 197
-33 64 -100 91 -179 73z"/>
<path d="M7435 9345 c-54 -14 -109 -66 -118 -110 -4 -24 -2 -25 45 -25 41 0
53 5 72 26 18 21 31 27 65 27 46 0 73 -20 86 -60 6 -22 5 -22 -57 -17 -80 8
-140 -8 -185 -49 -58 -54 -56 -145 4 -199 45 -41 158 -40 214 1 29 21 29 21
29 1 0 -17 6 -20 50 -20 l50 0 0 150 c0 159 -6 186 -53 237 -37 41 -128 58
-202 38z m147 -270 c-2 -11 -16 -32 -33 -47 -22 -22 -39 -28 -72 -28 -48 0
-67 13 -67 46 0 38 37 55 110 52 59 -3 65 -5 62 -23z"/>
<path d="M8590 9351 c-75 -15 -120 -61 -120 -122 0 -85 28 -111 153 -143 61
-16 83 -26 85 -39 6 -30 -17 -47 -65 -47 -34 0 -49 6 -67 25 -18 20 -33 25
-70 25 -42 0 -46 -2 -46 -24 0 -32 45 -85 87 -102 46 -20 157 -18 200 3 46 21
73 67 73 122 0 66 -43 104 -143 126 -105 23 -131 49 -82 81 30 20 88 12 107
-14 9 -12 28 -17 61 -18 46 0 48 1 42 24 -19 78 -113 123 -215 103z"/>
<path d="M9197 9345 c-65 -17 -98 -51 -104 -106 -10 -88 27 -126 150 -153 68
-16 97 -30 97 -47 0 -21 -35 -39 -75 -39 -35 0 -48 5 -63 25 -17 21 -28 25
-71 25 -60 0 -66 -15 -28 -71 32 -49 79 -69 160 -69 120 0 177 42 177 132 0
73 -39 109 -143 133 -43 11 -85 27 -94 37 -16 17 -16 20 0 36 24 24 95 22 113
-3 10 -14 28 -19 65 -21 50 -1 50 -1 44 25 -10 41 -31 67 -67 83 -50 23 -107
28 -161 13z"/>
<path d="M2720 9133 l0 -213 53 0 52 0 -2 82 c-2 130 6 179 38 210 23 23 36
28 78 28 l51 0 0 55 0 55 -34 0 c-44 0 -85 -15 -113 -42 l-23 -21 0 25 c0 24
-4 26 -50 30 l-50 3 0 -212z"/>
<path d="M4460 9133 l0 -213 55 0 55 0 0 120 c0 167 19 200 114 200 l46 0 0
55 0 55 -34 0 c-44 0 -85 -15 -113 -42 l-23 -21 0 25 c0 24 -4 26 -50 30 l-50
3 0 -212z"/>
<path d="M7956 9328 c3 -10 45 -111 94 -224 85 -199 88 -208 74 -235 -17 -33
-42 -49 -78 -49 -21 0 -26 -6 -33 -42 l-9 -43 38 -8 c44 -9 111 6 137 32 10
10 33 53 51 97 88 210 197 484 194 486 -1 2 -28 1 -60 -2 l-57 -5 -58 -150
c-44 -113 -60 -145 -65 -130 -4 11 -30 80 -59 154 l-51 133 -62 2 c-54 1 -61
-1 -56 -16z"/>
<path d="M8900 9345 c0 0 -1 -96 -3 -213 l-2 -212 53 0 52 0 0 213 0 212 -50
0 c-27 0 -50 0 -50 0z"/>
<path d="M5217 8160 c-113 -19 -235 -103 -294 -201 -66 -110 -63 -47 -63
-1396 0 -867 3 -1237 11 -1275 36 -166 171 -301 337 -337 38 -8 484 -11 1570
-11 1653 0 1568 -3 1684 56 108 55 197 183 218 314 6 42 10 495 10 1255 0
1291 1 1265 -55 1375 -33 66 -111 142 -177 176 -109 55 -58 54 -1688 53 -828
-1 -1527 -5 -1553 -9z m3184 -111 c72 -34 134 -96 168 -168 l26 -56 0 -1270 0
-1270 -27 -57 c-49 -104 -147 -177 -269 -198 -96 -16 -3051 -9 -3099 7 -106
37 -199 124 -237 223 -17 42 -18 128 -21 1260 -2 883 0 1231 8 1275 26 134
111 229 243 271 34 10 332 12 1597 11 l1555 -2 56 -26z"/>
<path d="M7830 7641 c-188 -58 -216 -69 -229 -93 -12 -21 -13 -31 -3 -52 18
-40 50 -41 162 -8 55 16 99 25 98 20 -2 -5 -127 -167 -278 -358 l-275 -349
-57 6 c-136 14 -238 -84 -226 -216 l5 -46 -190 -160 c-104 -88 -215 -182 -247
-208 l-58 -48 -89 44 c-75 38 -89 49 -91 71 -2 33 -34 96 -58 117 -38 33 -84
49 -142 49 -78 0 -139 -37 -172 -105 -19 -39 -22 -57 -17 -110 l6 -64 -290
-278 c-159 -153 -292 -286 -295 -296 -7 -23 19 -63 46 -72 13 -4 31 0 48 11
15 10 150 135 300 278 173 165 280 260 290 258 10 -2 44 -6 78 -9 64 -5 106 8
150 48 20 19 22 19 124 -26 56 -25 115 -45 129 -45 24 0 194 135 494 393 l56
48 46 -15 c64 -22 103 -20 163 10 85 42 126 135 98 226 l-13 46 274 349 c151
191 280 354 288 362 11 11 12 -4 8 -91 -6 -102 -5 -105 18 -121 31 -22 55 -21
77 3 13 16 22 68 39 238 19 191 20 220 7 240 -8 13 -24 22 -37 21 -12 -1 -119
-31 -237 -68z m-570 -946 c56 -29 68 -102 25 -149 -32 -35 -101 -37 -133 -3
-44 47 -37 117 16 150 34 21 55 21 92 2z m-1039 -414 c21 -21 29 -39 29 -64 0
-105 -147 -131 -180 -32 -32 98 79 168 151 96z"/>
<path d="M3745 7905 c-5 -2 -22 -6 -37 -9 -98 -22 -158 -167 -109 -264 37 -72
87 -102 172 -102 65 0 122 30 156 82 23 34 28 53 28 104 0 53 -4 69 -30 105
-16 23 -46 50 -65 60 -36 18 -97 31 -115 24z"/>
<path d="M3918 6573 c90 -2 234 -2 320 0 86 1 13 3 -163 3 -176 0 -247 -2
-157 -3z"/>
<path d="M3699 6544 l-24 -26 0 -1281 0 -1282 5 1285 c3 707 6 1286 8 1288 1
1 17 11 35 22 18 11 25 20 16 20 -8 0 -26 -12 -40 -26z"/>
<path d="M4416 6560 c12 -5 29 -19 38 -32 9 -12 16 -18 16 -12 0 15 -44 54
-61 53 -8 0 -4 -4 7 -9z"/>
<path d="M4475 5235 c0 -698 1 -983 2 -632 2 351 2 923 0 1270 -1 348 -2 61
-2 -638z"/>
<path d="M2634 6153 c-18 -2 -40 -13 -50 -25 -18 -19 -19 -64 -22 -1099 l-2
-1079 -135 0 -135 0 0 775 0 776 -25 24 -24 25 -350 0 -350 0 -28 -24 -28 -24
-2 -774 -3 -773 -132 -5 -133 -5 0 -30 0 -30 1787 -3 1787 -2 12 21 c26 50 37
49 -721 52 l-705 2 -2 1065 c-2 586 -5 1075 -8 1087 -10 43 -32 45 -374 47
-179 1 -340 0 -357 -1z"/>
<path d="M5786 4189 c-20 -16 -26 -29 -26 -59 0 -30 6 -43 26 -59 27 -21 32
-21 835 -21 444 0 815 3 824 6 18 7 45 55 45 79 0 9 -13 30 -29 46 l-29 29
-810 0 c-804 0 -809 0 -836 -21z"/>
<path d="M5812 3733 c-51 -10 -72 -97 -32 -137 21 -21 22 -21 841 -21 l821 0
24 28 c30 36 30 68 0 104 l-24 28 -804 1 c-441 1 -813 -1 -826 -3z"/>
<path d="M3245 3480 c-525 -95 -916 -477 -1026 -1003 -31 -146 -31 -380 0
-527 101 -478 415 -841 858 -991 258 -87 581 -84 835 7 179 65 352 171 480
296 237 231 365 508 403 875 l7 63 -644 2 -643 3 -3 648 -2 647 -83 -1 c-45 0
-127 -9 -182 -19z"/>
<path d="M5782 3237 c-32 -34 -30 -89 5 -117 26 -20 31 -20 541 -18 l514 3 19
24 c28 35 25 85 -7 110 -26 21 -36 21 -539 21 l-512 0 -21 -23z"/>
<path d="M1476 2869 c-101 -80 -57 -242 70 -257 60 -6 103 16 133 68 39 70 21
152 -42 190 -45 28 -125 27 -161 -1z"/>
<path d="M7344 2836 c-19 -14 -19 -37 -22 -948 l-2 -933 -620 0 -620 0 0 480
c0 419 -2 483 -16 503 -15 22 -17 22 -284 22 -267 0 -269 0 -284 -22 -14 -20
-16 -84 -16 -504 l0 -481 -128 3 c-70 2 -141 0 -157 -4 -33 -9 -45 -41 -22
-60 11 -9 389 -11 1538 -10 l1524 3 3 27 c5 43 -21 50 -181 47 l-142 -2 -3
928 c-2 847 -4 930 -19 947 -15 17 -37 18 -273 18 -205 0 -260 -3 -276 -14z"/>
<path d="M6432 2284 l-22 -15 2 -652 3 -652 2 650 c3 597 4 651 20 663 12 9
82 12 263 12 181 0 251 -3 263 -12 15 -12 17 -47 20 -338 l2 -325 3 327 2 327
-22 15 c-19 13 -62 16 -268 16 -206 0 -249 -3 -268 -16z"/>
<path d="M6984 1290 c0 -179 2 -252 3 -162 2 89 2 235 0 325 -1 89 -3 16 -3
-163z"/>
</g>
</svg>
