<?xml version="1.0" standalone="no"?>
<!DOCTYPE svg PUBLIC "-//W3C//DTD SVG 20010904//EN"
 "http://www.w3.org/TR/2001/REC-SVG-20010904/DTD/svg10.dtd">
<svg version="1.0" xmlns="http://www.w3.org/2000/svg"
 width="1024.000000pt" height="1024.000000pt" viewBox="0 0 1024.000000 1024.000000"
 preserveAspectRatio="xMidYMid meet">

<g transform="translate(0.000000,1024.000000) scale(0.100000,-0.100000)"
fill="#000000" stroke="none">
<path d="M3330 9254 l0 -504 90 0 90 0 0 50 0 51 34 -35 c117 -116 357 -93
466 45 62 79 84 147 84 264 0 80 -5 111 -23 157 -29 75 -98 150 -169 185 -49
24 -69 28 -142 28 -74 0 -92 -4 -143 -30 -33 -16 -67 -40 -78 -53 -19 -25 -19
-23 -19 162 l0 187 -95 -2 -95 -1 0 -504z m493 34 c94 -72 102 -228 17 -317
-80 -83 -234 -62 -288 40 -20 37 -23 55 -20 120 3 87 27 133 88 169 52 31 154
25 203 -12z"/>
<path d="M7712 9752 l-94 -3 3 -487 c1 -268 5 -493 7 -499 3 -9 32 -13 98 -13
l94 0 0 225 c0 251 5 276 61 316 47 33 132 38 177 9 57 -35 62 -62 62 -320 l0
-230 101 0 100 0 -3 273 c-3 308 -7 323 -86 404 -86 88 -258 98 -368 22 l-44
-30 0 165 c0 91 -3 166 -7 168 -5 2 -50 2 -101 0z"/>
<path d="M2140 9403 c0 -206 -4 -363 -10 -385 -15 -51 -70 -98 -118 -98 -53 0
-100 32 -123 85 -11 25 -23 45 -26 45 -6 0 -175 -62 -182 -67 -12 -8 36 -99
74 -141 67 -75 125 -97 255 -97 95 0 111 3 162 28 67 33 119 90 144 156 16 40
19 94 22 434 l3 387 -100 0 -101 0 0 -347z"/>
<path d="M4220 9250 l0 -500 96 0 97 0 -5 327 -4 327 111 -229 c61 -127 117
-245 124 -263 l14 -33 86 3 86 3 120 257 120 258 3 -325 2 -325 95 0 95 0 0
500 0 500 -104 0 c-95 0 -105 -2 -111 -19 -3 -11 -73 -156 -155 -323 l-148
-303 -159 322 -158 322 -102 1 -103 0 0 -500z"/>
<path d="M6398 9682 l-88 -3 0 -94 0 -94 -62 -3 -63 -3 -3 -82 -3 -83 65 0 64
0 4 -202 c4 -224 11 -254 70 -315 46 -47 113 -66 212 -61 122 7 124 8 112 113
-8 73 -12 85 -25 79 -9 -4 -39 -9 -66 -12 -44 -3 -53 0 -75 23 -24 26 -25 31
-28 201 l-3 174 95 0 94 0 4 81 c2 44 1 83 -1 85 -2 2 -46 4 -97 4 l-93 0 -3
97 c-2 55 -7 97 -13 98 -5 0 -49 -1 -97 -3z"/>
<path d="M2715 9486 c-111 -35 -185 -99 -236 -202 -32 -64 -34 -76 -34 -164 1
-75 5 -107 23 -152 32 -80 99 -150 180 -190 63 -31 72 -33 177 -33 102 0 115
2 175 31 79 38 140 97 177 172 25 52 28 67 28 167 0 98 -3 116 -26 166 -66
141 -194 220 -354 218 -38 0 -88 -6 -110 -13z m205 -183 c90 -58 126 -181 81
-279 -49 -108 -198 -140 -288 -61 -148 130 -51 385 137 361 25 -3 56 -13 70
-21z"/>
<path d="M5621 9479 c-80 -26 -154 -95 -165 -153 -4 -21 -4 -42 1 -46 8 -7
125 -40 142 -40 5 0 19 16 31 35 40 64 156 79 220 27 13 -11 23 -33 27 -60 l6
-42 -64 0 c-100 0 -229 -19 -279 -41 -97 -43 -144 -117 -138 -215 5 -81 41
-136 113 -173 43 -23 62 -26 145 -26 104 0 157 19 206 72 l24 26 0 -47 0 -46
96 0 96 0 -4 268 c-3 245 -5 271 -24 312 -52 112 -133 161 -277 167 -73 2
-105 -1 -156 -18z m261 -454 c-4 -52 -23 -80 -72 -105 -54 -28 -152 -28 -180
0 -29 29 -35 66 -15 96 27 42 69 54 175 51 l95 -2 -3 -40z"/>
<path d="M7056 9485 c-101 -28 -206 -126 -242 -226 -8 -24 -18 -77 -21 -117
-18 -230 143 -402 377 -402 159 0 272 67 325 193 18 42 28 34 -93 80 l-63 25
-18 -37 c-52 -100 -222 -108 -290 -13 -64 91 -44 242 40 305 77 57 205 30 238
-51 l12 -29 85 30 c97 34 100 41 52 113 -83 123 -240 173 -402 129z"/>
<path d="M5464 8190 c-12 -4 -30 -19 -41 -33 l-19 -24 -94 14 c-133 20 -507
28 -659 14 -163 -15 -377 -51 -399 -67 -13 -10 -14 -15 -5 -25 10 -10 32 -9
110 4 342 58 682 67 957 24 77 -12 80 -13 88 -43 17 -68 102 -103 167 -70 18
10 35 24 38 32 3 7 11 14 18 14 8 0 85 -23 172 -51 174 -57 358 -134 502 -210
90 -48 121 -55 121 -26 0 43 -483 251 -750 323 -28 8 -36 15 -41 44 -10 49
-59 90 -107 89 -20 0 -47 -4 -58 -9z"/>
<path d="M7046 7894 c-20 -19 -21 -68 -2 -83 9 -8 161 -10 547 -9 l534 3 3 40
c3 29 -1 43 -14 52 -14 10 -129 13 -535 13 -457 0 -519 -2 -533 -16z"/>
<path d="M8390 7481 l0 -419 108 -4 c161 -6 152 -11 152 88 l0 84 60 0 60 0 0
-85 0 -85 48 -2 c26 -1 86 -2 134 -2 l88 -1 0 423 0 422 -325 0 -325 0 0 -419z
m500 179 l0 -70 -60 0 -60 0 0 65 0 64 58 4 c31 2 58 4 60 5 1 1 2 -29 2 -68z
m-252 -2 l-3 -63 -57 -3 -58 -3 0 66 0 65 60 0 61 0 -3 -62z m-2 -234 l-5 -66
-55 -2 -56 -3 0 69 0 68 60 0 60 0 -4 -66z m254 1 l0 -65 -60 0 -60 0 0 65 0
65 60 0 60 0 0 -65z"/>
<path d="M2103 7846 c-168 -41 -316 -194 -352 -364 -34 -162 21 -320 151 -437
62 -56 117 -82 214 -102 209 -42 411 62 510 262 62 126 59 279 -9 408 -96 183
-314 281 -514 233z"/>
<path d="M2907 7592 c-21 -23 -22 -66 -1 -86 14 -14 73 -16 504 -16 l489 0 15
22 c21 30 20 54 -4 78 -19 19 -33 20 -503 20 -456 0 -485 -1 -500 -18z"/>
<path d="M7042 7578 c-15 -15 -16 -53 -2 -79 10 -18 26 -19 420 -19 394 0 410
1 420 19 14 26 13 64 -2 79 -17 17 -819 17 -836 0z"/>
<path d="M5020 7325 c-7 -8 -10 -22 -6 -30 5 -13 42 -15 261 -15 l256 0 -3 28
-3 27 -246 3 c-209 2 -248 0 -259 -13z"/>
<path d="M2912 7264 c-26 -18 -30 -65 -6 -88 13 -14 64 -16 398 -16 284 0 385
3 394 12 18 18 14 73 -6 91 -17 15 -58 17 -388 17 -318 0 -373 -2 -392 -16z"/>
<path d="M7046 7244 c-23 -22 -20 -60 6 -78 20 -14 87 -16 528 -16 547 0 543
0 543 53 0 59 22 57 -544 57 -457 0 -519 -2 -533 -16z"/>
<path d="M1201 7105 c-141 -153 -333 -466 -401 -652 -19 -52 -27 -63 -50 -68
-16 -3 -40 -18 -54 -32 -47 -46 -47 -97 -1 -152 l26 -30 -15 -81 c-35 -185
-29 -441 15 -650 42 -194 135 -443 203 -543 24 -36 25 -40 11 -67 -22 -43 -19
-84 11 -119 47 -56 126 -50 164 11 43 68 -1 150 -82 153 l-43 1 -62 125 c-97
193 -155 391 -184 629 -13 111 -6 375 14 464 12 56 15 61 46 69 51 13 79 35
91 73 16 46 4 93 -32 126 -28 26 -29 29 -18 65 19 61 156 319 217 410 31 45
91 126 134 180 43 54 79 103 79 109 0 30 -31 20 -69 -21z"/>
<path d="M5020 7115 c-7 -8 -10 -22 -6 -30 5 -13 56 -15 386 -15 l381 0 -3 28
-3 27 -371 3 c-320 2 -373 0 -384 -13z"/>
<path d="M1787 6738 c-25 -19 -32 -71 -12 -91 15 -16 101 -17 1070 -17 l1054
0 15 22 c22 31 20 45 -9 73 l-24 25 -1039 0 c-815 0 -1042 -3 -1055 -12z"/>
<path d="M7541 6687 c-8 -11 1 -33 42 -97 55 -87 73 -103 83 -76 4 10 -12 46
-40 90 -55 88 -69 102 -85 83z"/>
<path d="M1785 6426 c-29 -29 -31 -43 -9 -74 l15 -22 753 0 c717 0 754 1 769
18 21 23 22 52 3 78 -14 18 -35 19 -760 22 l-747 2 -24 -24z"/>
<path d="M4742 6352 c-80 -24 -117 -134 -64 -194 13 -16 12 -22 -14 -60 -49
-71 -155 -178 -239 -241 -106 -79 -295 -170 -419 -202 -123 -31 -132 -31 -140
0 -8 31 -60 65 -101 65 -39 0 -93 -33 -105 -65 -6 -15 -17 -25 -29 -25 -10 0
-83 16 -161 36 -112 28 -145 33 -151 23 -4 -7 -6 -17 -3 -21 7 -10 150 -53
251 -74 74 -16 83 -20 94 -47 14 -33 63 -67 97 -67 41 0 93 31 110 66 12 26
23 35 51 40 118 19 316 94 426 161 74 45 209 149 251 194 18 19 55 65 83 103
51 67 52 68 101 70 41 1 55 7 81 32 62 62 43 167 -36 200 -37 15 -47 16 -83 6z"/>
<path d="M7576 6154 c-167 -40 -329 -187 -349 -316 -3 -20 1 -67 9 -105 18
-86 18 -156 0 -191 -8 -15 -38 -56 -66 -92 -62 -76 -100 -152 -100 -198 0
-138 104 -244 256 -259 71 -8 198 15 237 41 35 24 97 119 97 150 0 18 -1 18
-18 3 -26 -24 -87 -47 -122 -47 -56 0 -95 24 -119 72 -30 63 -28 75 17 82 64
12 102 27 102 42 0 17 0 17 -75 -1 -81 -20 -85 -19 -85 13 0 22 -9 34 -37 53
-34 22 -38 29 -37 64 2 49 43 371 50 390 4 10 19 -1 46 -33 68 -78 140 -136
221 -176 98 -48 149 -56 180 -29 53 49 100 52 145 11 52 -49 13 -164 -62 -182
l-38 -10 7 -60 c16 -161 40 -223 113 -298 l46 -47 -38 -118 c-160 -495 -373
-1080 -388 -1065 -14 14 -57 180 -79 308 -20 110 -23 164 -24 364 0 129 1 283
3 342 4 110 -3 145 -20 114 -5 -9 -14 -16 -19 -16 -6 0 -43 -16 -82 -36 -139
-69 -250 -168 -456 -409 -80 -93 -173 -201 -207 -240 -108 -124 -267 -270
-325 -298 -95 -44 -512 -179 -668 -216 -47 -11 -88 -27 -93 -34 -5 -9 -42 -19
-101 -27 -83 -11 -97 -10 -118 3 -50 33 -110 38 -190 16 -187 -51 -329 -172
-329 -279 0 -130 115 -152 236 -46 l50 44 50 -30 c98 -61 279 -224 295 -266
10 -27 -2 -56 -27 -66 -19 -7 -53 16 -119 83 -51 52 -81 64 -92 34 -4 -11 3
-24 23 -41 109 -91 133 -129 102 -160 -25 -25 -58 -12 -130 53 -68 62 -108 81
-108 52 0 -8 27 -40 60 -71 70 -67 84 -88 68 -104 -24 -24 -63 -13 -103 29
-22 23 -56 52 -75 65 -61 42 -105 77 -184 145 -102 89 -127 94 -202 38 -75
-55 -100 -114 -72 -174 7 -16 24 -29 47 -35 20 -5 48 -23 64 -39 15 -16 40
-32 56 -36 15 -3 38 -19 50 -35 17 -24 29 -30 58 -30 29 0 43 -7 69 -35 18
-20 41 -35 54 -35 35 0 83 28 105 60 19 29 22 30 73 24 50 -6 54 -5 85 29 19
19 47 38 64 41 37 8 59 31 68 69 5 19 13 27 30 27 12 0 35 12 50 27 24 24 27
34 23 75 -5 43 -2 49 21 65 14 9 37 18 51 19 27 3 340 80 590 145 255 66 431
142 627 271 121 79 265 190 292 224 l20 26 5 -24 c10 -51 56 -405 56 -430 l0
-28 603 -2 c331 -2 707 -2 836 0 l234 3 -6 147 c-16 361 -112 833 -213 1040
-38 79 -59 108 -137 186 -79 79 -108 99 -203 149 -61 31 -122 57 -135 58 -16
0 -8 5 21 13 143 40 230 143 233 275 2 81 -32 135 -120 191 -73 47 -120 85
-133 111 -5 9 -16 64 -25 122 -26 178 -71 276 -164 359 -79 70 -209 119 -310
117 -20 0 -62 -7 -95 -15z m-2215 -2488 c52 -24 56 -24 129 -11 128 24 125 24
149 -47 20 -60 42 -167 56 -270 5 -42 4 -47 -17 -53 -13 -3 -56 -20 -95 -37
-84 -35 -67 -41 -189 66 -83 72 -166 132 -223 159 -38 19 -32 22 -116 -50 -85
-73 -145 -67 -145 14 0 89 92 166 270 229 84 29 116 29 181 0z m-540 -496 l24
-20 -65 -60 c-69 -64 -80 -69 -103 -45 -21 21 -12 45 37 99 47 51 71 57 107
26z m88 -61 c18 -20 19 -24 6 -48 -7 -14 -32 -43 -55 -64 -38 -35 -43 -37 -63
-24 -11 7 -23 19 -25 26 -3 9 98 123 115 130 1 1 11 -9 22 -20z m95 -85 c23
-22 21 -29 -26 -80 -32 -34 -47 -44 -67 -42 -44 5 -40 43 10 94 47 48 59 52
83 28z m95 -80 c27 -34 27 -37 -10 -79 -37 -41 -75 -47 -88 -12 -10 23 3 51
42 95 26 28 31 28 56 -4z"/>
<path d="M5952 5998 c-7 -7 -12 -26 -12 -43 0 -17 5 -36 12 -43 9 -9 108 -12
383 -12 275 0 374 3 383 12 7 7 12 26 12 43 0 17 -5 36 -12 43 -9 9 -108 12
-383 12 -275 0 -374 -3 -383 -12z"/>
<path d="M8398 5999 c-25 -14 -24 -75 1 -89 22 -11 331 -14 519 -3 108 5 122
8 122 24 0 25 22 29 151 30 130 1 185 -14 236 -63 68 -66 116 -231 111 -383
l-3 -87 -35 -12 c-20 -6 -44 -25 -57 -45 -40 -60 -26 -128 33 -163 l37 -22 -6
-100 c-12 -232 -122 -500 -267 -652 -41 -43 -48 -74 -16 -74 20 0 98 91 153
178 110 175 181 412 183 604 0 43 3 48 34 63 73 35 85 130 24 187 -29 27 -30
29 -33 145 -6 232 -68 378 -189 441 l-51 27 -465 2 c-310 2 -471 -1 -482 -8z"/>
<path d="M2113 5776 c-86 -28 -153 -69 -209 -128 -61 -64 -92 -118 -130 -234
-56 -172 -93 -228 -199 -298 -72 -48 -137 -119 -169 -186 -27 -57 -31 -75 -30
-150 1 -134 48 -215 156 -269 76 -38 96 -38 183 -2 39 16 115 41 170 56 55 14
113 35 130 45 78 49 125 134 150 274 22 130 21 141 -20 166 -55 34 -75 66 -75
121 0 39 6 55 30 83 36 40 70 51 116 36 24 -8 36 -20 46 -46 11 -32 14 -34 48
-28 114 20 310 167 344 259 8 19 8 19 18 -5 5 -13 20 -77 34 -141 13 -64 33
-142 44 -174 28 -81 26 -91 -15 -105 -26 -9 -35 -17 -35 -34 0 -34 -20 -84
-35 -90 -8 -3 -38 1 -67 9 -29 7 -55 11 -57 9 -9 -9 25 -33 64 -46 37 -13 40
-16 39 -50 -1 -47 -36 -94 -81 -109 -28 -9 -52 -9 -107 1 -39 7 -79 17 -88 22
-31 16 -20 -9 18 -41 37 -29 37 -30 30 -89 l-7 -60 33 -6 c18 -3 71 -22 117
-41 78 -32 87 -34 130 -23 99 24 163 76 205 167 16 37 20 65 20 141 0 87 -5
108 -53 255 l-53 160 8 95 c9 122 8 143 -11 201 -28 83 -166 192 -313 247 -54
20 -89 26 -187 29 -106 3 -128 0 -192 -21z"/>
<path d="M7432 5618 c-27 -27 -2 -75 32 -62 18 7 32 47 21 63 -8 15 -38 14
-53 -1z"/>
<path d="M2576 5242 c-10 -30 4 -53 28 -50 31 4 30 62 -1 66 -14 2 -23 -3 -27
-16z"/>
<path d="M4123 5198 c-50 -11 -107 -68 -122 -125 -21 -75 -8 -163 24 -163 12
0 15 14 15 73 0 80 18 122 67 154 25 17 62 18 452 21 473 3 478 2 517 -61 16
-28 20 -59 25 -222 7 -241 22 -284 124 -338 39 -21 51 -22 490 -25 442 -3 450
-3 466 17 10 12 35 23 60 27 59 9 76 19 99 57 57 93 -17 228 -118 213 -101
-15 -160 -150 -97 -224 l24 -29 -428 -7 c-299 -4 -437 -3 -457 4 -43 16 -93
69 -104 110 -5 19 -10 108 -10 196 0 178 -10 227 -57 277 -52 53 -87 57 -527
56 -221 -1 -420 -5 -443 -11z"/>
<path d="M3412 4754 c-27 -19 -45 -54 -152 -294 -156 -353 -173 -380 -328
-539 l-137 -141 -3 62 c-3 67 -15 98 -37 98 -11 0 -13 -18 -8 -105 l6 -104
-34 -33 c-26 -26 -72 -48 -194 -93 -169 -62 -768 -265 -772 -261 -2 1 4 45 13
97 54 330 72 484 60 497 -24 24 -33 -9 -66 -233 -18 -121 -37 -255 -44 -298
l-11 -78 -80 -27 c-55 -19 -81 -33 -83 -44 -2 -12 3 -18 16 -18 33 0 585 181
904 296 97 35 181 64 185 64 13 0 89 -149 113 -219 l21 -64 -23 -24 c-28 -30
-242 -172 -365 -242 -215 -122 -516 -247 -700 -291 -51 -12 -93 -26 -93 -31 0
-5 32 -9 70 -9 74 0 136 18 331 95 209 83 504 240 676 360 l65 46 -6 -28 c-17
-87 -28 -166 -41 -304 -8 -85 -15 -157 -15 -161 0 -5 9 -8 20 -8 24 0 24 -4
56 260 14 118 30 216 35 218 4 2 6 9 3 16 -11 30 22 63 211 211 110 86 210
167 223 178 23 21 31 22 300 22 152 0 286 4 297 9 13 6 3 -11 -25 -45 -25 -30
-67 -81 -92 -115 l-46 -61 406 -133 c326 -107 410 -131 430 -124 27 10 57 58
99 157 30 72 93 306 86 323 -2 6 -21 19 -41 28 -39 17 -426 165 -452 172 -10
3 -25 -12 -43 -41 -35 -55 -67 -81 -118 -96 -30 -9 -42 -9 -54 1 -22 18 -19
40 15 93 16 26 26 47 21 47 -4 0 -26 17 -49 38 -32 30 -42 46 -42 70 0 37 15
49 38 29 24 -21 98 -57 117 -57 35 0 7 36 -55 72 -70 41 -78 53 -57 83 14 18
16 18 86 -13 78 -35 101 -39 101 -18 0 20 -21 34 -81 56 -39 13 -54 24 -54 37
0 22 38 28 99 15 50 -10 53 -8 101 108 15 36 63 147 106 246 43 100 79 193 79
207 0 58 11 57 -498 57 -409 0 -470 -2 -490 -16z m-25 -690 c10 -26 -10 -47
-63 -66 -89 -32 -234 -103 -234 -115 0 -27 27 -21 161 37 77 34 147 59 155 56
8 -3 14 -16 14 -29 0 -21 -16 -32 -112 -78 -61 -30 -121 -59 -132 -64 -24 -12
-28 -38 -6 -43 9 -1 64 22 124 53 60 30 112 55 117 55 5 0 9 -9 9 -19 0 -21
-72 -88 -260 -242 -134 -110 -338 -269 -345 -269 -3 0 -5 13 -5 28 0 29 -65
173 -101 223 -19 27 -19 28 -1 38 10 5 87 80 172 166 85 86 175 168 199 183
45 26 252 101 284 102 10 0 20 -7 24 -16z"/>
<path d="M843 3748 c-86 -225 -127 -459 -126 -718 0 -298 72 -631 183 -850
l30 -59 -20 -33 c-32 -53 -27 -103 15 -145 33 -33 39 -35 85 -31 28 3 50 2 50
-2 0 -4 34 -56 77 -116 89 -128 315 -357 440 -449 249 -182 570 -328 855 -389
19 -4 28 -14 33 -36 9 -43 58 -80 105 -80 30 0 48 8 74 31 l35 31 153 -18
c118 -13 198 -16 350 -11 l197 6 118 -66 c362 -203 805 -358 1213 -422 223
-35 351 -44 584 -38 243 6 407 26 612 76 518 127 1000 394 1317 730 37 39 67
76 67 82 0 6 16 8 43 4 62 -9 113 14 132 59 19 44 19 64 0 99 -13 26 -12 30
24 85 99 149 192 382 232 582 20 98 20 113 7 126 -22 22 -32 3 -47 -91 -27
-166 -151 -480 -244 -614 -22 -33 -27 -35 -74 -32 -43 2 -54 -2 -81 -27 -26
-24 -32 -38 -32 -72 0 -23 5 -51 11 -62 10 -19 -1 -33 -117 -147 -71 -70 -168
-156 -216 -191 -360 -269 -810 -457 -1267 -531 -162 -26 -554 -37 -727 -20
-443 45 -852 165 -1269 373 -77 39 -169 86 -204 106 l-64 36 -281 1 c-185 0
-307 5 -358 14 -71 12 -77 15 -83 41 -18 81 -133 108 -185 43 -18 -23 -25 -25
-61 -19 -120 19 -405 130 -574 223 -256 141 -503 358 -679 595 -87 118 -87
118 -71 147 19 38 19 74 0 111 -18 35 -41 49 -98 58 l-42 8 -42 99 c-58 139
-107 307 -134 460 -53 307 -18 715 86 992 30 79 32 103 6 103 -13 0 -24 -15
-38 -52z"/>
<path d="M6428 3403 c12 -2 30 -2 40 0 9 3 -1 5 -23 4 -22 0 -30 -2 -17 -4z"/>
<path d="M7128 3403 c6 -2 18 -2 25 0 6 3 1 5 -13 5 -14 0 -19 -2 -12 -5z"/>
<path d="M6402 3048 c-18 -18 -14 -63 6 -81 17 -16 102 -17 1024 -17 961 0
1006 1 1021 18 20 22 22 63 5 80 -17 17 -2039 17 -2056 0z"/>
<path d="M6407 2742 c-20 -22 -22 -63 -5 -80 9 -9 200 -12 800 -12 768 0 788
0 798 19 15 29 12 49 -10 71 -20 20 -33 20 -793 20 -737 0 -775 -1 -790 -18z"/>
<path d="M9293 2736 c-22 -19 -28 -32 -28 -66 0 -34 6 -47 31 -69 l30 -27 -13
-68 c-26 -129 -113 -332 -206 -481 -93 -149 -215 -291 -364 -422 l-62 -55 -27
21 c-40 31 -96 28 -136 -8 -27 -24 -32 -36 -34 -81 -2 -28 -5 -54 -7 -57 -3
-2 -47 -23 -99 -45 -139 -61 -301 -113 -439 -144 -135 -29 -156 -38 -138 -61
14 -16 31 -13 206 28 134 31 322 98 432 154 70 35 72 35 103 19 75 -39 168 14
168 96 0 33 6 45 32 67 150 127 289 283 392 440 92 141 197 387 227 532 11 52
17 61 46 75 57 27 72 108 28 151 -34 34 -103 35 -142 1z"/>
<path d="M4000 2731 c-222 -61 -414 -216 -505 -405 -61 -130 -80 -215 -78
-361 1 -98 6 -136 28 -210 63 -216 203 -383 400 -479 112 -54 168 -68 310 -73
112 -5 143 -2 215 16 86 22 207 74 261 112 l29 21 65 -60 65 -60 60 62 59 61
-54 55 c-30 31 -55 59 -55 64 0 5 14 24 30 43 17 19 45 64 64 101 103 205 112
428 25 653 -86 224 -300 407 -541 464 -90 21 -294 19 -378 -4z m387 -181 c147
-52 286 -174 351 -310 48 -101 62 -163 62 -273 0 -168 -49 -275 -182 -402
-101 -96 -191 -146 -310 -171 -282 -60 -579 113 -679 396 -34 95 -34 286 -1
382 60 173 226 337 393 388 89 27 276 22 366 -10z"/>
<path d="M1755 2374 c-47 -26 -73 -54 -90 -98 -14 -35 -16 -94 -13 -411 3
-366 3 -370 26 -407 13 -20 38 -46 56 -57 33 -21 46 -21 653 -21 l620 0 40 29
c73 53 74 63 71 492 -3 417 0 399 -75 456 l-36 28 -611 2 c-543 2 -614 1 -641
-13z m1079 -313 c23 -19 21 -68 -3 -81 -24 -12 -769 -14 -789 -1 -8 5 -12 23
-10 47 l3 39 60 5 c33 3 209 5 391 5 265 0 334 -3 348 -14z m-173 -291 c23
-13 25 -53 3 -74 -13 -14 -56 -16 -313 -16 -227 0 -301 3 -308 13 -17 21 -21
41 -12 65 l8 22 301 0 c189 0 309 -4 321 -10z"/>
<path d="M6050 1948 c-33 -17 -51 -35 -67 -68 -22 -42 -23 -55 -23 -295 0
-240 1 -253 23 -295 16 -33 34 -51 67 -67 43 -22 53 -23 342 -23 230 0 306 3
331 14 42 17 83 66 97 114 5 20 10 141 10 271 0 217 -2 238 -21 277 -12 26
-36 53 -57 66 -36 22 -44 23 -347 26 -306 3 -311 2 -355 -20z m524 -260 c10
-17 -6 -38 -161 -206 l-58 -63 -79 87 c-63 68 -77 90 -70 102 19 29 31 23 94
-39 l63 -62 25 29 c84 100 156 174 165 171 6 -2 15 -10 21 -19z"/>
</g>
</svg>
