<?xml version="1.0" standalone="no"?>
<!DOCTYPE svg PUBLIC "-//W3C//DTD SVG 20010904//EN"
 "http://www.w3.org/TR/2001/REC-SVG-20010904/DTD/svg10.dtd">
<svg version="1.0" xmlns="http://www.w3.org/2000/svg"
 width="1024.000000pt" height="1024.000000pt" viewBox="0 0 1024.000000 1024.000000"
 preserveAspectRatio="xMidYMid meet">

<g transform="translate(0.000000,1024.000000) scale(0.100000,-0.100000)"
fill="#000000" stroke="none">
<path d="M1964 9190 c-12 -4 -31 -21 -43 -36 -20 -26 -21 -35 -21 -353 l0
-326 -98 -54 c-53 -30 -116 -67 -138 -82 -76 -52 -74 -32 -74 -707 1 -625 2
-645 45 -692 9 -10 33 -27 53 -37 35 -17 85 -18 1007 -15 l970 3 45 22 c33 16
51 34 68 67 l23 45 -6 615 c-4 338 -11 623 -15 635 -13 33 -48 60 -172 130
l-118 66 0 132 0 132 -233 232 -232 233 -520 -1 c-286 0 -530 -4 -541 -9z
m1028 -517 c22 -20 23 -61 1 -85 -15 -17 -40 -18 -370 -18 l-354 0 -24 25
c-30 29 -31 49 -5 75 19 19 33 20 377 20 318 0 358 -2 375 -17z m-157 -338
c30 -29 31 -49 5 -75 -19 -19 -33 -20 -295 -20 l-276 0 -24 25 c-30 29 -31 49
-5 75 19 19 33 20 295 20 l276 0 24 -25z m-1015 -201 c63 -41 129 -86 145
-100 29 -25 29 -26 5 -20 -14 3 -20 3 -13 0 7 -3 9 -12 6 -20 -3 -8 0 -14 7
-14 6 0 9 4 6 9 -7 11 22 23 35 15 5 -3 6 -10 3 -16 -4 -6 -2 -8 3 -5 6 4 73
-37 149 -89 77 -53 183 -125 237 -161 54 -35 95 -68 92 -73 -3 -6 0 -7 8 -4 8
3 19 -1 26 -9 9 -12 6 -18 -15 -32 -31 -20 -46 -12 -18 11 18 14 18 15 -4 4
-14 -7 -21 -17 -18 -25 3 -10 -72 -69 -230 -181 -188 -133 -238 -164 -246
-153 -8 11 -9 10 -4 -3 4 -13 -31 -43 -152 -128 l-157 -111 -6 28 c-4 19 0 32
10 41 12 10 13 12 0 12 -12 0 -14 79 -16 556 -1 514 0 555 15 549 10 -3 69
-40 132 -81z m1894 -502 c0 -323 -1 -595 -2 -606 -2 -15 -5 -16 -17 -6 -11 9
-12 17 -4 34 9 20 9 20 -5 3 -13 -17 -22 -13 -143 74 -341 244 -412 300 -408
320 2 12 -4 23 -18 30 -19 8 -20 8 -7 -3 14 -13 25 -38 16 -38 -3 0 -66 46
-141 102 l-137 101 59 36 c56 34 156 101 427 285 92 62 132 84 139 77 8 -8 7
-11 -3 -11 -7 0 -11 -2 -8 -5 3 -3 13 -3 22 1 15 6 15 7 0 18 -14 11 -7 19 57
59 41 26 94 62 119 81 25 19 47 35 50 35 3 1 5 -263 4 -587z m-925 -45 c6 -8
7 -18 3 -22 -4 -5 -1 -5 6 -1 14 9 85 -40 77 -53 -7 -12 32 -44 44 -36 6 3
100 -60 208 -141 230 -171 378 -279 448 -329 l50 -35 -798 -1 c-438 0 -815 -1
-837 -1 -22 0 -86 1 -142 1 l-102 1 73 50 c62 42 76 48 94 39 19 -9 20 -8 5 3
-15 13 1 27 143 129 88 62 196 140 240 172 44 32 84 55 90 52 5 -4 8 -1 7 7
-2 7 5 12 14 12 10 -1 15 2 13 7 -5 7 76 69 90 69 4 0 4 -7 1 -16 -3 -9 -2
-12 5 -9 6 4 8 13 5 21 -3 8 12 25 38 43 38 26 49 29 97 25 37 -3 62 0 79 10
32 18 35 19 49 3z m121 -92 c7 -8 8 -15 2 -15 -5 0 -15 7 -22 15 -7 8 -8 15
-2 15 5 0 15 -7 22 -15z"/>
<path d="M1711 8178 c9 -7 14 -19 11 -26 -3 -10 -7 -10 -20 0 -14 12 -14 11
-1 -10 8 -12 15 -18 17 -13 2 6 11 7 20 4 13 -4 14 -3 3 5 -7 5 -11 15 -7 20
4 6 -4 16 -16 22 -19 9 -21 9 -7 -2z"/>
<path d="M1800 8125 c0 -5 5 -17 10 -25 5 -8 10 -10 10 -5 0 6 -5 17 -10 25
-5 8 -10 11 -10 5z"/>
<path d="M1735 8080 c3 -5 8 -10 11 -10 2 0 4 5 4 10 0 6 -5 10 -11 10 -5 0
-7 -4 -4 -10z"/>
<path d="M1780 8080 c-9 -6 -10 -10 -3 -10 6 0 15 5 18 10 8 12 4 12 -15 0z"/>
<path d="M1831 8040 c-13 -11 -18 -20 -13 -20 6 0 14 5 17 10 4 6 10 8 14 6 4
-3 8 1 8 9 0 8 -1 15 -1 15 -1 -1 -12 -10 -25 -20z"/>
<path d="M1875 8041 c-3 -5 0 -13 6 -17 7 -4 9 -3 5 4 -3 5 0 13 6 15 9 4 10
6 1 6 -6 1 -14 -3 -18 -8z"/>
<path d="M1839 8003 c-13 -17 -13 -17 6 -3 11 8 22 16 24 17 2 2 0 3 -6 3 -6
0 -17 -8 -24 -17z"/>
<path d="M1791 7976 c12 -20 25 -39 30 -42 5 -3 0 11 -12 30 -12 20 -25 39
-30 42 -5 3 0 -11 12 -30z"/>
<path d="M1752 7974 c-7 -8 -8 -14 -3 -14 10 0 25 19 20 25 -2 1 -10 -3 -17
-11z"/>
<path d="M1940 7981 c0 -6 4 -13 10 -16 6 -3 7 1 4 9 -7 18 -14 21 -14 7z"/>
<path d="M1969 7953 c-13 -17 -13 -17 6 -3 11 8 22 16 24 17 2 2 0 3 -6 3 -6
0 -17 -8 -24 -17z"/>
<path d="M2035 7960 c3 -5 8 -10 11 -10 2 0 4 5 4 10 0 6 -5 10 -11 10 -5 0
-7 -4 -4 -10z"/>
<path d="M1840 7949 c0 -5 5 -7 10 -4 6 3 10 8 10 11 0 2 -4 4 -10 4 -5 0 -10
-5 -10 -11z"/>
<path d="M1925 7949 c-4 -6 -5 -12 -2 -15 2 -3 7 2 10 11 7 17 1 20 -8 4z"/>
<path d="M1956 7913 c-6 -14 -5 -15 5 -6 7 7 10 15 7 18 -3 3 -9 -2 -12 -12z"/>
<path d="M2077 7923 c-10 -9 -9 -33 1 -33 4 0 8 9 8 20 0 23 0 22 -9 13z"/>
<path d="M1801 7913 c-1 -17 16 -25 25 -12 4 7 3 9 -4 5 -5 -3 -13 0 -15 6 -4
9 -6 10 -6 1z"/>
<path d="M1740 7900 c-9 -6 -10 -10 -3 -10 6 0 15 5 18 10 8 12 4 12 -15 0z"/>
<path d="M1976 7893 c-6 -14 -5 -15 5 -6 7 7 10 15 7 18 -3 3 -9 -2 -12 -12z"/>
<path d="M2000 7906 c0 -2 7 -7 16 -10 8 -3 12 -2 9 4 -6 10 -25 14 -25 6z"/>
<path d="M1946 7873 c-6 -14 -5 -15 5 -6 7 7 10 15 7 18 -3 3 -9 -2 -12 -12z"/>
<path d="M2122 7873 c14 -17 25 -16 25 1 0 8 -8 14 -18 13 -14 -1 -15 -4 -7
-14z"/>
<path d="M1786 7867 c3 -10 9 -15 12 -12 3 3 0 11 -7 18 -10 9 -11 8 -5 -6z"/>
<path d="M1881 7864 c0 -11 3 -14 6 -6 3 7 2 16 -1 19 -3 4 -6 -2 -5 -13z"/>
<path d="M2005 7859 c2 -24 32 -47 32 -25 0 8 -6 12 -13 9 -9 -3 -11 2 -7 16
3 12 1 21 -4 21 -5 0 -9 -9 -8 -21z"/>
<path d="M1720 7860 c-9 -6 -10 -10 -3 -10 6 0 15 5 18 10 8 12 4 12 -15 0z"/>
<path d="M1755 7850 c-3 -5 1 -10 10 -10 9 0 13 5 10 10 -3 6 -8 10 -10 10 -2
0 -7 -4 -10 -10z"/>
<path d="M2197 7842 c2 -10 13 -18 24 -18 24 0 24 0 -5 19 -22 15 -24 15 -19
-1z"/>
<path d="M1896 7833 c-6 -14 -5 -15 5 -6 7 7 10 15 7 18 -3 3 -9 -2 -12 -12z"/>
<path d="M2131 7834 c0 -11 3 -14 6 -6 3 7 2 16 -1 19 -3 4 -6 -2 -5 -13z"/>
<path d="M2170 7841 c0 -6 4 -13 10 -16 6 -3 7 1 4 9 -7 18 -14 21 -14 7z"/>
<path d="M2150 7825 c0 -8 4 -15 10 -15 5 0 7 7 4 15 -4 8 -8 15 -10 15 -2 0
-4 -7 -4 -15z"/>
<path d="M1750 7826 c0 -2 7 -7 16 -10 8 -3 12 -2 9 4 -6 10 -25 14 -25 6z"/>
<path d="M1920 7815 c-9 -10 -9 -15 -1 -15 6 0 11 5 11 11 0 5 5 7 10 4 6 -3
10 -1 10 4 0 16 -16 13 -30 -4z"/>
<path d="M2066 7821 c-12 -5 -15 -10 -9 -14 6 -4 16 0 23 8 14 17 13 17 -14 6z"/>
<path d="M1726 7805 c-9 -26 -7 -32 5 -12 6 10 9 21 6 23 -2 3 -7 -2 -11 -11z"/>
<path d="M2250 7816 c0 -2 8 -10 18 -17 15 -13 16 -12 3 4 -13 16 -21 21 -21
13z"/>
<path d="M2120 7806 c0 -4 7 -14 15 -22 8 -9 15 -11 15 -6 0 5 -7 15 -15 22
-8 7 -15 9 -15 6z"/>
<path d="M1694 7786 c1 -8 5 -18 8 -22 4 -3 5 1 4 10 -1 8 -5 18 -8 22 -4 3
-5 -1 -4 -10z"/>
<path d="M2040 7788 c0 -9 7 -19 16 -22 15 -6 15 -4 3 11 -7 10 -15 20 -16 22
-2 2 -3 -3 -3 -11z"/>
<path d="M2179 7798 c-4 -17 -3 -68 2 -68 10 0 17 60 7 66 -4 3 -8 4 -9 2z"/>
<path d="M2296 7775 c-9 -26 -7 -32 5 -12 6 10 9 21 6 23 -2 3 -7 -2 -11 -11z"/>
<path d="M2255 7760 c-7 -21 -32 -22 -27 -1 1 6 -3 11 -9 11 -6 0 -9 -6 -6
-14 3 -7 0 -20 -6 -27 -10 -11 -9 -11 4 -1 14 10 18 9 23 -4 4 -10 2 -21 -5
-24 -8 -6 -8 -9 0 -14 10 -7 12 -3 15 31 1 7 9 22 18 32 10 11 13 23 8 26 -5
3 -12 -4 -15 -15z"/>
<path d="M1725 7760 c-3 -6 1 -7 9 -4 18 7 21 14 7 14 -6 0 -13 -4 -16 -10z"/>
<path d="M1920 7759 c0 -5 5 -7 10 -4 6 3 10 8 10 11 0 2 -4 4 -10 4 -5 0 -10
-5 -10 -11z"/>
<path d="M2150 7760 c-9 -6 -10 -10 -3 -10 6 0 15 5 18 10 8 12 4 12 -15 0z"/>
<path d="M2090 7756 c0 -2 7 -7 16 -10 8 -3 12 -2 9 4 -6 10 -25 14 -25 6z"/>
<path d="M2333 7745 c0 -8 4 -12 9 -9 5 3 6 10 3 15 -9 13 -12 11 -12 -6z"/>
<path d="M1806 7733 c-6 -15 -8 -15 -16 -3 -6 9 -10 10 -10 3 0 -19 17 -24 30
-8 7 9 11 18 8 21 -3 3 -9 -3 -12 -13z"/>
<path d="M1696 7723 c-6 -14 -5 -15 5 -6 7 7 10 15 7 18 -3 3 -9 -2 -12 -12z"/>
<path d="M1860 7730 c-9 -6 -10 -10 -3 -10 6 0 15 5 18 10 8 12 4 12 -15 0z"/>
<path d="M2287 7720 c3 -14 6 -31 6 -37 0 -9 4 -10 13 -2 8 7 14 7 19 -1 8
-13 25 -3 24 13 0 8 -2 8 -6 -1 -4 -10 -8 -10 -19 -1 -8 6 -14 8 -14 3 -1 -5
-7 5 -15 21 -12 24 -14 25 -8 5z"/>
<path d="M2102 7718 c-7 -7 -12 -9 -12 -5 0 4 -9 3 -20 -3 -15 -8 -20 -8 -20
1 0 7 -3 10 -6 6 -12 -12 7 -27 24 -18 27 13 44 3 32 -20 -7 -13 -7 -19 0 -19
5 0 10 7 10 15 0 8 6 15 13 15 9 0 8 3 -2 9 -7 5 -10 14 -7 20 9 15 3 14 -12
-1z"/>
<path d="M1959 7711 c9 -6 10 -11 2 -15 -6 -4 -11 -12 -11 -19 0 -12 29 23 30
36 0 4 -8 7 -17 7 -14 0 -15 -2 -4 -9z"/>
<path d="M2400 7715 c4 -20 0 -30 -8 -19 -5 9 -10 8 -19 -2 -8 -8 -9 -15 -3
-19 6 -3 10 -1 10 6 0 9 3 9 14 0 11 -9 15 -8 20 5 4 10 2 22 -4 28 -7 7 -11
7 -10 1z"/>
<path d="M1832 7691 c7 -9 14 -18 15 -20 2 -2 3 5 3 16 0 11 -7 20 -15 20 -12
0 -12 -3 -3 -16z"/>
<path d="M2168 7683 c5 -21 7 -23 10 -9 2 10 0 22 -6 28 -6 6 -7 0 -4 -19z"/>
<path d="M1695 7689 c-11 -17 1 -21 15 -4 8 9 8 15 2 15 -6 0 -14 -5 -17 -11z"/>
<path d="M1870 7690 c0 -5 7 -7 15 -4 8 4 15 8 15 10 0 2 -7 4 -15 4 -8 0 -15
-4 -15 -10z"/>
<path d="M1735 7680 c3 -5 8 -10 11 -10 2 0 4 5 4 10 0 6 -5 10 -11 10 -5 0
-7 -4 -4 -10z"/>
<path d="M2004 7682 c3 -5 0 -13 -6 -15 -9 -4 -10 -6 -1 -6 17 -1 25 16 12 25
-7 4 -9 3 -5 -4z"/>
<path d="M2258 7683 c7 -3 16 -2 19 1 4 3 -2 6 -13 5 -11 0 -14 -3 -6 -6z"/>
<path d="M1785 7659 c-11 -16 -1 -19 13 -3 7 8 8 14 3 14 -5 0 -13 -5 -16 -11z"/>
<path d="M2026 7653 c-6 -14 -5 -15 5 -6 7 7 10 15 7 18 -3 3 -9 -2 -12 -12z"/>
<path d="M2179 7643 c-13 -17 -13 -17 6 -3 11 8 22 16 24 17 2 2 0 3 -6 3 -6
0 -17 -8 -24 -17z"/>
<path d="M2275 7650 c-3 -5 -1 -10 4 -10 6 0 11 5 11 10 0 6 -2 10 -4 10 -3 0
-8 -4 -11 -10z"/>
<path d="M2375 7650 c3 -5 8 -10 11 -10 2 0 4 5 4 10 0 6 -5 10 -11 10 -5 0
-7 -4 -4 -10z"/>
<path d="M2045 7629 c-4 -11 -4 -23 -1 -26 3 -4 6 -1 6 6 0 7 4 10 9 7 5 -4 7
3 4 14 -7 25 -10 25 -18 -1z"/>
<path d="M1990 7627 c8 -7 21 -19 29 -27 11 -13 12 -12 3 6 -7 12 -19 24 -29
28 -16 5 -16 4 -3 -7z"/>
<path d="M2096 7623 c-6 -14 -5 -15 5 -6 7 7 10 15 7 18 -3 3 -9 -2 -12 -12z"/>
<path d="M2338 7633 c7 -3 16 -2 19 1 4 3 -2 6 -13 5 -11 0 -14 -3 -6 -6z"/>
<path d="M2389 7623 c-13 -16 -12 -17 4 -4 9 7 17 15 17 17 0 8 -8 3 -21 -13z"/>
<path d="M1704 7622 c3 -5 0 -13 -6 -15 -9 -4 -10 -6 -1 -6 17 -1 25 16 12 25
-7 4 -9 3 -5 -4z"/>
<path d="M1874 7618 c10 -6 22 -6 26 -2 5 5 -3 10 -18 11 -22 1 -24 0 -8 -9z"/>
<path d="M2131 7614 c0 -11 3 -14 6 -6 3 7 2 16 -1 19 -3 4 -6 -2 -5 -13z"/>
<path d="M2261 7614 c0 -11 3 -14 6 -6 3 7 2 16 -1 19 -3 4 -6 -2 -5 -13z"/>
<path d="M2406 7612 c-3 -5 1 -9 9 -9 8 0 15 4 15 9 0 4 -4 8 -9 8 -6 0 -12
-4 -15 -8z"/>
<path d="M1935 7600 c-3 -5 -1 -10 4 -10 6 0 11 5 11 10 0 6 -2 10 -4 10 -3 0
-8 -4 -11 -10z"/>
<path d="M1805 7590 c-3 -6 1 -7 9 -4 18 7 21 14 7 14 -6 0 -13 -4 -16 -10z"/>
<path d="M2035 7580 c-17 -8 -17 -9 7 -7 15 1 24 5 22 9 -3 4 -6 8 -7 7 -1 0
-11 -4 -22 -9z"/>
<path d="M2170 7586 c0 -7 40 -14 44 -7 3 4 -6 8 -20 9 -13 1 -24 0 -24 -2z"/>
<path d="M2413 7575 c0 -8 4 -12 9 -9 5 3 6 10 3 15 -9 13 -12 11 -12 -6z"/>
<path d="M2340 7566 c-6 -9 -10 -21 -7 -28 4 -9 6 -7 6 4 1 9 7 18 14 21 6 2
9 7 6 11 -3 4 -12 0 -19 -8z"/>
<path d="M1710 7560 c8 -5 20 -10 25 -10 6 0 3 5 -5 10 -8 5 -19 10 -25 10 -5
0 -3 -5 5 -10z"/>
<path d="M2117 7559 c7 -7 15 -10 18 -7 3 3 -2 9 -12 12 -14 6 -15 5 -6 -5z"/>
<path d="M2157 7555 c-4 -9 -3 -13 3 -10 6 3 10 1 10 -6 0 -8 4 -8 15 1 12 10
15 10 15 0 0 -10 3 -10 15 0 8 7 15 18 15 24 0 8 -2 8 -8 0 -9 -13 -45 -15
-53 -2 -3 5 -9 2 -12 -7z"/>
<path d="M2363 7534 l-28 -25 33 22 c17 13 32 24 32 26 0 8 -11 1 -37 -23z"/>
<path d="M1697 7543 c-12 -11 -7 -57 8 -77 13 -17 15 -18 15 -3 0 9 -5 17 -11
17 -7 0 -10 14 -7 35 4 38 4 38 -5 28z"/>
<path d="M2038 7525 c-3 -13 -2 -22 2 -20 11 7 20 45 10 45 -4 0 -10 -11 -12
-25z"/>
<path d="M2291 7534 c0 -11 3 -14 6 -6 3 7 2 16 -1 19 -3 4 -6 -2 -5 -13z"/>
<path d="M1857 7529 c7 -7 15 -10 18 -7 3 3 -2 9 -12 12 -14 6 -15 5 -6 -5z"/>
<path d="M1901 7524 c0 -11 3 -14 6 -6 3 7 2 16 -1 19 -3 4 -6 -2 -5 -13z"/>
<path d="M2000 7530 c0 -5 5 -10 11 -10 5 0 7 5 4 10 -3 6 -8 10 -11 10 -2 0
-4 -4 -4 -10z"/>
<path d="M2106 7524 c-5 -14 -4 -15 9 -4 17 14 19 20 6 20 -5 0 -12 -7 -15
-16z"/>
<path d="M1715 7519 c-11 -16 -1 -19 13 -3 7 8 8 14 3 14 -5 0 -13 -5 -16 -11z"/>
<path d="M1923 7513 c4 -3 1 -13 -6 -22 -11 -14 -10 -14 5 -2 16 12 16 31 1
31 -4 0 -3 -3 0 -7z"/>
<path d="M1740 7490 c6 -11 13 -20 16 -20 2 0 0 9 -6 20 -6 11 -13 20 -16 20
-2 0 0 -9 6 -20z"/>
<path d="M2162 7496 c7 -8 15 -12 17 -11 5 6 -10 25 -20 25 -5 0 -4 -6 3 -14z"/>
<path d="M2250 7490 c-6 -11 -8 -20 -6 -20 3 0 10 9 16 20 6 11 8 20 6 20 -3
0 -10 -9 -16 -20z"/>
<path d="M2280 7499 c0 -5 9 -9 20 -9 11 0 20 2 20 4 0 2 -9 6 -20 9 -11 3
-20 1 -20 -4z"/>
<path d="M1947 7487 c-3 -8 1 -14 8 -14 7 0 11 6 8 14 -3 7 -6 13 -8 13 -2 0
-5 -6 -8 -13z"/>
<path d="M2190 7491 c0 -5 7 -15 17 -22 15 -13 15 -12 4 9 -12 23 -21 28 -21
13z"/>
<path d="M2100 7481 c0 -5 7 -12 16 -15 14 -5 15 -4 4 9 -14 17 -20 19 -20 6z"/>
<path d="M1985 7470 c3 -5 8 -10 11 -10 2 0 4 5 4 10 0 6 -5 10 -11 10 -5 0
-7 -4 -4 -10z"/>
<path d="M2074 7471 c7 -11 46 -35 46 -28 0 3 -12 12 -26 22 -15 9 -23 12 -20
6z"/>
<path d="M1692 7440 c0 -14 2 -19 5 -12 2 6 2 18 0 25 -3 6 -5 1 -5 -13z"/>
<path d="M1812 7444 c-7 -8 -8 -14 -3 -14 10 0 25 19 20 25 -2 1 -10 -3 -17
-11z"/>
<path d="M2027 7431 c-14 -28 -14 -29 2 -19 9 5 17 19 17 29 0 25 -2 24 -19
-10z"/>
<path d="M1835 7430 c-3 -6 1 -7 9 -4 18 7 21 14 7 14 -6 0 -13 -4 -16 -10z"/>
<path d="M1960 7430 c0 -5 6 -10 13 -10 8 0 7 -4 -3 -10 -8 -5 -10 -10 -5 -10
6 0 15 4 22 8 9 6 7 11 -7 20 -12 7 -20 8 -20 2z"/>
<path d="M1711 7414 c0 -11 3 -14 6 -6 3 7 2 16 -1 19 -3 4 -6 -2 -5 -13z"/>
<path d="M1906 7421 c-3 -4 6 -6 19 -3 14 2 25 6 25 8 0 8 -39 4 -44 -5z"/>
<path d="M1746 7412 c-3 -5 1 -9 9 -9 8 0 12 4 9 9 -3 4 -7 8 -9 8 -2 0 -6 -4
-9 -8z"/>
<path d="M2057 7413 c-10 -9 -9 -23 1 -23 5 0 9 7 9 15 0 17 -1 18 -10 8z"/>
<path d="M2100 7386 c7 -7 13 -7 20 0 6 6 3 10 -10 10 -13 0 -16 -4 -10 -10z"/>
<path d="M1726 7377 c3 -10 9 -15 12 -12 3 3 0 11 -7 18 -10 9 -11 8 -5 -6z"/>
<path d="M1836 7382 c-2 -4 -1 -14 4 -22 7 -11 9 -9 7 8 -1 24 -3 26 -11 14z"/>
<path d="M1692 7350 c0 -14 2 -19 5 -12 2 6 2 18 0 25 -3 6 -5 1 -5 -13z"/>
<path d="M2090 7361 c0 -6 4 -13 10 -16 6 -3 7 1 4 9 -7 18 -14 21 -14 7z"/>
<path d="M1787 7329 c7 -7 15 -10 18 -7 3 3 -2 9 -12 12 -14 6 -15 5 -6 -5z"/>
<path d="M1960 7336 c0 -2 7 -7 16 -10 8 -3 12 -2 9 4 -6 10 -25 14 -25 6z"/>
<path d="M1850 7325 c0 -5 5 -17 10 -25 5 -8 10 -10 10 -5 0 6 -5 17 -10 25
-5 8 -10 11 -10 5z"/>
<path d="M1926 7308 c3 -4 11 -5 19 -1 21 7 19 12 -4 10 -11 0 -18 -5 -15 -9z"/>
<path d="M1740 7302 c0 -5 8 -13 17 -16 15 -6 15 -8 3 -16 -11 -7 -11 -10 -2
-10 7 0 15 7 19 16 3 8 12 13 20 10 8 -4 11 -1 8 5 -4 6 -14 8 -22 5 -9 -4
-22 -1 -29 5 -9 7 -14 8 -14 1z"/>
<path d="M1777 7247 c-9 -11 -17 -25 -17 -30 0 -6 10 2 21 17 12 15 20 29 17
31 -2 2 -11 -6 -21 -18z"/>
<path d="M1817 7219 c7 -7 15 -10 18 -7 3 3 -2 9 -12 12 -14 6 -15 5 -6 -5z"/>
<path d="M1715 7201 c-6 -11 13 -26 22 -17 4 3 1 6 -6 6 -7 0 -9 5 -6 10 3 6
4 10 1 10 -3 0 -7 -4 -11 -9z"/>
<path d="M1856 7178 c3 -5 10 -6 15 -3 13 9 11 12 -6 12 -8 0 -12 -4 -9 -9z"/>
<path d="M1783 7127 c-2 -18 -1 -18 18 -2 23 22 23 21 1 21 -11 0 -19 -8 -19
-19z"/>
<path d="M1750 7130 c0 -5 5 -10 11 -10 5 0 7 5 4 10 -3 6 -8 10 -11 10 -2 0
-4 -4 -4 -10z"/>
<path d="M3665 8171 c-3 -5 -2 -12 3 -15 5 -3 9 1 9 9 0 17 -3 19 -12 6z"/>
<path d="M3691 8134 c0 -11 3 -14 6 -6 3 7 2 16 -1 19 -3 4 -6 -2 -5 -13z"/>
<path d="M3646 8115 c-11 -8 -15 -15 -9 -15 6 0 16 7 23 15 16 19 11 19 -14 0z"/>
<path d="M3579 8103 c-13 -17 -13 -17 6 -3 11 8 22 16 24 17 2 2 0 3 -6 3 -6
0 -17 -8 -24 -17z"/>
<path d="M3535 8080 c-3 -5 -1 -10 4 -10 6 0 11 5 11 10 0 6 -2 10 -4 10 -3 0
-8 -4 -11 -10z"/>
<path d="M3645 8070 c4 -6 11 -8 16 -5 14 9 11 15 -7 15 -8 0 -12 -5 -9 -10z"/>
<path d="M3555 8060 c-3 -5 -1 -10 4 -10 6 0 11 5 11 10 0 6 -2 10 -4 10 -3 0
-8 -4 -11 -10z"/>
<path d="M3585 8060 c-3 -6 1 -7 9 -4 18 7 21 14 7 14 -6 0 -13 -4 -16 -10z"/>
<path d="M3677 8049 c7 -7 15 -10 18 -7 3 3 -2 9 -12 12 -14 6 -15 5 -6 -5z"/>
<path d="M3506 8008 c3 -5 10 -6 15 -3 13 9 11 12 -6 12 -8 0 -12 -4 -9 -9z"/>
<path d="M3545 7990 c-3 -6 1 -7 9 -4 18 7 21 14 7 14 -6 0 -13 -4 -16 -10z"/>
<path d="M3610 7996 c0 -2 7 -6 15 -10 8 -3 15 -1 15 4 0 6 -7 10 -15 10 -8 0
-15 -2 -15 -4z"/>
<path d="M3671 7991 c-7 -5 -9 -11 -5 -14 5 -3 15 1 22 9 14 16 5 18 -17 5z"/>
<path d="M3476 7981 c-3 -4 1 -17 10 -27 14 -18 15 -18 5 2 -6 12 -7 24 -4 28
3 3 4 6 0 6 -3 0 -8 -4 -11 -9z"/>
<path d="M3379 7978 c-5 -18 -6 -38 -1 -34 7 8 12 36 6 36 -2 0 -4 -1 -5 -2z"/>
<path d="M3610 7966 c0 -2 7 -6 15 -10 8 -3 15 -1 15 4 0 6 -7 10 -15 10 -8 0
-15 -2 -15 -4z"/>
<path d="M3685 7959 c-4 -6 -5 -12 -2 -15 2 -3 7 2 10 11 7 17 1 20 -8 4z"/>
<path d="M3456 7947 c3 -10 9 -15 12 -12 3 3 0 11 -7 18 -10 9 -11 8 -5 -6z"/>
<path d="M3436 7937 c3 -10 9 -15 12 -12 3 3 0 11 -7 18 -10 9 -11 8 -5 -6z"/>
<path d="M3543 7938 c-10 -17 -14 -42 -5 -33 4 4 7 12 7 18 1 7 7 11 14 9 7
-1 10 2 6 8 -8 13 -12 13 -22 -2z"/>
<path d="M3686 7915 c4 -8 8 -15 10 -15 2 0 4 7 4 15 0 8 -4 15 -10 15 -5 0
-7 -7 -4 -15z"/>
<path d="M3362 7904 c-7 -8 -17 -12 -23 -9 -5 4 -9 1 -9 -4 0 -14 6 -14 31 -1
14 8 19 7 19 -1 0 -7 3 -10 6 -6 3 3 2 12 -3 20 -7 13 -10 13 -21 1z"/>
<path d="M3610 7895 c0 -8 2 -15 4 -15 2 0 6 7 10 15 3 8 1 15 -4 15 -6 0 -10
-7 -10 -15z"/>
<path d="M3676 7877 c-16 -12 -16 -13 3 -13 12 0 21 6 21 13 0 7 -1 13 -3 13
-2 0 -11 -6 -21 -13z"/>
<path d="M3417 7863 c4 -9 10 -10 24 -2 24 13 24 14 -5 14 -14 0 -22 -5 -19
-12z"/>
<path d="M3490 7870 c-13 -8 -12 -10 3 -10 9 0 17 5 17 10 0 12 -1 12 -20 0z"/>
<path d="M3554 7855 c1 -8 6 -18 11 -22 4 -5 5 -2 0 6 -6 11 -4 13 8 8 23 -9
21 0 -2 13 -15 7 -19 7 -17 -5z"/>
<path d="M3610 7862 c0 -6 9 -12 20 -15 11 -3 20 -3 20 -1 0 2 -9 8 -20 14
-11 6 -20 7 -20 2z"/>
<path d="M3380 7856 c0 -2 7 -9 15 -16 9 -7 15 -8 15 -2 0 5 -7 12 -15 16 -8
3 -15 4 -15 2z"/>
<path d="M3497 7837 c-3 -8 1 -14 8 -14 7 0 11 6 8 14 -3 7 -6 13 -8 13 -2 0
-5 -6 -8 -13z"/>
<path d="M3680 7843 c0 -5 5 -15 10 -23 7 -12 9 -10 7 8 -1 19 -17 33 -17 15z"/>
<path d="M3366 7824 c-8 -20 -4 -25 11 -16 7 4 9 13 4 21 -6 10 -10 9 -15 -5z"/>
<path d="M3135 7809 c-4 -6 -5 -12 -2 -15 2 -3 7 2 10 11 7 17 1 20 -8 4z"/>
<path d="M3286 7805 c4 -8 11 -15 16 -15 6 0 5 6 -2 15 -7 8 -14 15 -16 15 -2
0 -1 -7 2 -15z"/>
<path d="M3456 7804 c-5 -14 -4 -15 9 -4 17 14 19 20 6 20 -5 0 -12 -7 -15
-16z"/>
<path d="M3550 7800 c0 -11 2 -20 4 -20 2 0 6 9 9 20 3 11 1 20 -4 20 -5 0 -9
-9 -9 -20z"/>
<path d="M3230 7806 c0 -2 8 -10 18 -17 15 -13 16 -12 3 4 -13 16 -21 21 -21
13z"/>
<path d="M3335 7780 c-3 -5 -1 -10 4 -10 6 0 11 5 11 10 0 6 -2 10 -4 10 -3 0
-8 -4 -11 -10z"/>
<path d="M3076 7769 c2 -4 -5 -13 -16 -19 -11 -6 -20 -16 -19 -23 0 -9 2 -9 6
1 8 21 21 13 17 -10 -3 -14 0 -11 7 7 7 17 16 35 20 41 5 7 3 11 -6 11 -8 0
-12 -4 -9 -8z"/>
<path d="M3106 7763 c-6 -14 -5 -15 5 -6 7 7 10 15 7 18 -3 3 -9 -2 -12 -12z"/>
<path d="M3183 7763 c0 -9 4 -10 14 -2 7 6 13 12 13 14 0 1 -6 2 -13 2 -8 0
-14 -6 -14 -14z"/>
<path d="M3490 7776 c0 -2 7 -7 16 -10 8 -3 12 -2 9 4 -6 10 -25 14 -25 6z"/>
<path d="M3296 7762 c-3 -5 1 -9 9 -9 8 0 12 4 9 9 -3 4 -7 8 -9 8 -2 0 -6 -4
-9 -8z"/>
<path d="M3615 7760 c3 -5 8 -10 11 -10 2 0 4 5 4 10 0 6 -5 10 -11 10 -5 0
-7 -4 -4 -10z"/>
<path d="M3204 7746 c-16 -12 -17 -17 -6 -28 11 -11 12 -10 7 3 -4 10 2 19 17
27 13 6 18 11 12 11 -5 1 -19 -5 -30 -13z"/>
<path d="M3396 7747 c3 -10 9 -15 12 -12 3 3 0 11 -7 18 -10 9 -11 8 -5 -6z"/>
<path d="M3555 7740 c3 -5 8 -10 11 -10 2 0 4 5 4 10 0 6 -5 10 -11 10 -5 0
-7 -4 -4 -10z"/>
<path d="M3230 7725 c0 -8 4 -15 10 -15 5 0 7 7 4 15 -4 8 -8 15 -10 15 -2 0
-4 -7 -4 -15z"/>
<path d="M3437 7721 c-4 -17 -3 -21 5 -13 5 5 8 16 6 23 -3 8 -7 3 -11 -10z"/>
<path d="M3375 7720 c-3 -5 -1 -10 4 -10 6 0 11 5 11 10 0 6 -2 10 -4 10 -3 0
-8 -4 -11 -10z"/>
<path d="M3506 7718 c3 -5 10 -6 15 -3 13 9 11 12 -6 12 -8 0 -12 -4 -9 -9z"/>
<path d="M2992 7690 c7 -10 14 -18 15 -16 6 6 -9 36 -18 36 -5 0 -4 -9 3 -20z"/>
<path d="M3295 7700 c3 -5 11 -10 16 -10 6 0 7 5 4 10 -3 6 -11 10 -16 10 -6
0 -7 -4 -4 -10z"/>
<path d="M3690 7699 c0 -5 -4 -8 -8 -5 -4 2 -8 -4 -8 -14 0 -32 23 -31 24 1 0
16 -1 29 -4 29 -2 0 -4 -5 -4 -11z"/>
<path d="M2935 7680 c-3 -6 1 -7 9 -4 18 7 21 14 7 14 -6 0 -13 -4 -16 -10z"/>
<path d="M3020 7680 c0 -5 7 -7 15 -4 8 4 15 8 15 10 0 2 -7 4 -15 4 -8 0 -15
-4 -15 -10z"/>
<path d="M3365 7679 c-4 -6 -4 -13 -1 -16 3 -4 6 -1 6 6 0 7 4 9 10 6 18 -11
49 -14 55 -5 3 4 -3 7 -12 5 -10 -1 -26 2 -35 6 -10 6 -19 5 -23 -2z"/>
<path d="M3489 7688 c-5 -19 -8 -50 -4 -46 7 7 15 48 9 48 -2 0 -4 -1 -5 -2z"/>
<path d="M3576 7677 c3 -10 9 -15 12 -12 3 3 0 11 -7 18 -10 9 -11 8 -5 -6z"/>
<path d="M3105 7670 c-3 -5 -1 -10 4 -10 6 0 11 5 11 10 0 6 -2 10 -4 10 -3 0
-8 -4 -11 -10z"/>
<path d="M3035 7660 c-3 -6 1 -7 9 -4 18 7 21 14 7 14 -6 0 -13 -4 -16 -10z"/>
<path d="M2980 7640 c0 -5 5 -10 11 -10 5 0 7 5 4 10 -3 6 -8 10 -11 10 -2 0
-4 -4 -4 -10z"/>
<path d="M3101 7634 c0 -11 3 -14 6 -6 3 7 2 16 -1 19 -3 4 -6 -2 -5 -13z"/>
<path d="M3378 7643 c7 -3 16 -2 19 1 4 3 -2 6 -13 5 -11 0 -14 -3 -6 -6z"/>
<path d="M3416 7642 c-3 -4 4 -9 15 -9 23 -2 25 3 4 10 -8 4 -16 3 -19 -1z"/>
<path d="M3526 7633 c-6 -14 -5 -15 5 -6 7 7 10 15 7 18 -3 3 -9 -2 -12 -12z"/>
<path d="M3656 7635 c4 -8 8 -15 10 -15 2 0 4 7 4 15 0 8 -4 15 -10 15 -5 0
-7 -7 -4 -15z"/>
<path d="M3065 7620 c3 -5 8 -10 11 -10 2 0 4 5 4 10 0 6 -5 10 -11 10 -5 0
-7 -4 -4 -10z"/>
<path d="M3124 7610 c0 -13 4 -16 10 -10 7 7 7 13 0 20 -6 6 -10 3 -10 -10z"/>
<path d="M3250 7620 c0 -5 5 -10 11 -10 5 0 7 5 4 10 -3 6 -8 10 -11 10 -2 0
-4 -4 -4 -10z"/>
<path d="M3310 7620 c0 -5 5 -10 11 -10 5 0 7 5 4 10 -3 6 -8 10 -11 10 -2 0
-4 -4 -4 -10z"/>
<path d="M3375 7614 c-10 -8 -14 -14 -8 -14 7 0 15 5 19 11 4 8 9 7 15 -2 6
-10 9 -10 9 -2 0 19 -14 22 -35 7z"/>
<path d="M3565 7619 c-4 -6 -5 -12 -2 -15 2 -3 7 2 10 11 7 17 1 20 -8 4z"/>
<path d="M3425 7610 c3 -5 8 -10 11 -10 2 0 4 5 4 10 0 6 -5 10 -11 10 -5 0
-7 -4 -4 -10z"/>
<path d="M3085 7599 c-4 -6 -5 -12 -2 -15 2 -3 7 2 10 11 7 17 1 20 -8 4z"/>
<path d="M3540 7601 c0 -6 4 -13 10 -16 6 -3 7 1 4 9 -7 18 -14 21 -14 7z"/>
<path d="M3150 7580 c-9 -6 -10 -10 -3 -10 6 0 15 5 18 10 8 12 4 12 -15 0z"/>
<path d="M3426 7573 c-6 -14 -5 -15 5 -6 7 7 10 15 7 18 -3 3 -9 -2 -12 -12z"/>
<path d="M3100 7569 c0 -5 5 -7 10 -4 6 3 10 8 10 11 0 2 -4 4 -10 4 -5 0 -10
-5 -10 -11z"/>
<path d="M3010 7555 c0 -8 2 -15 4 -15 2 0 6 7 10 15 3 8 1 15 -4 15 -6 0 -10
-7 -10 -15z"/>
<path d="M3675 7560 c-16 -7 -17 -9 -3 -9 9 -1 20 4 23 9 7 11 7 11 -20 0z"/>
<path d="M3346 7548 c3 -5 10 -6 15 -3 13 9 11 12 -6 12 -8 0 -12 -4 -9 -9z"/>
<path d="M3440 7549 c0 -5 5 -7 10 -4 6 3 10 8 10 11 0 2 -4 4 -10 4 -5 0 -10
-5 -10 -11z"/>
<path d="M3580 7555 c0 -7 30 -13 34 -7 3 4 -4 9 -15 9 -10 1 -19 0 -19 -2z"/>
<path d="M3075 7540 c3 -5 8 -10 11 -10 2 0 4 5 4 10 0 6 -5 10 -11 10 -5 0
-7 -4 -4 -10z"/>
<path d="M3280 7533 c0 -11 5 -11 20 -3 11 6 20 12 20 13 0 2 -9 3 -20 3 -11
0 -20 -6 -20 -13z"/>
<path d="M3385 7530 c2 -27 10 -33 12 -10 1 11 -2 22 -6 24 -4 3 -7 -4 -6 -14z"/>
<path d="M3548 7543 c6 -2 12 -9 12 -14 0 -6 -5 -7 -12 -3 -7 4 -8 3 -4 -5 6
-9 11 -9 22 0 12 10 12 14 2 20 -7 5 -17 8 -23 8 -5 0 -4 -3 3 -6z"/>
<path d="M3030 7530 c0 -5 5 -10 11 -10 5 0 7 5 4 10 -3 6 -8 10 -11 10 -2 0
-4 -4 -4 -10z"/>
<path d="M3180 7536 c0 -2 7 -6 15 -10 8 -3 15 -1 15 4 0 6 -7 10 -15 10 -8 0
-15 -2 -15 -4z"/>
<path d="M3220 7530 c0 -5 5 -10 11 -10 5 0 7 5 4 10 -3 6 -8 10 -11 10 -2 0
-4 -4 -4 -10z"/>
<path d="M3640 7526 c7 -7 13 -7 20 0 6 6 3 10 -10 10 -13 0 -16 -4 -10 -10z"/>
<path d="M3108 7523 c7 -3 16 -2 19 1 4 3 -2 6 -13 5 -11 0 -14 -3 -6 -6z"/>
<path d="M3345 7519 c-11 -16 -1 -19 13 -3 7 8 8 14 3 14 -5 0 -13 -5 -16 -11z"/>
<path d="M3440 7519 c0 -5 5 -7 10 -4 6 3 10 8 10 11 0 2 -4 4 -10 4 -5 0 -10
-5 -10 -11z"/>
<path d="M3616 7507 c3 -10 9 -15 12 -12 3 3 0 11 -7 18 -10 9 -11 8 -5 -6z"/>
<path d="M3130 7500 c0 -5 5 -10 11 -10 5 0 7 5 4 10 -3 6 -8 10 -11 10 -2 0
-4 -4 -4 -10z"/>
<path d="M3217 7503 c-12 -11 -8 -22 11 -32 14 -7 19 -6 19 4 0 7 -6 11 -14 8
-9 -4 -11 0 -7 11 6 17 2 21 -9 9z"/>
<path d="M3557 7493 c-4 -3 -7 -11 -7 -17 0 -6 5 -5 12 2 6 6 9 14 7 17 -3 3
-9 2 -12 -2z"/>
<path d="M3298 7478 c9 -11 9 -18 2 -21 -6 -3 -5 -4 2 -3 7 2 18 -4 24 -12 9
-12 11 -12 11 0 0 7 -12 22 -26 33 -18 13 -22 14 -13 3z"/>
<path d="M3345 7480 c-3 -5 -1 -10 4 -10 6 0 11 5 11 10 0 6 -2 10 -4 10 -3 0
-8 -4 -11 -10z"/>
<path d="M3158 7468 c5 -5 16 -8 23 -6 8 3 3 7 -10 11 -17 4 -21 3 -13 -5z"/>
<path d="M3390 7468 c0 -4 4 -8 9 -8 6 0 12 4 15 8 3 5 -1 9 -9 9 -8 0 -15 -4
-15 -9z"/>
<path d="M3586 7457 c3 -10 9 -15 12 -12 3 3 0 11 -7 18 -10 9 -11 8 -5 -6z"/>
<path d="M3634 7449 c-4 -8 -3 -9 4 -5 7 4 12 1 12 -8 0 -8 4 -17 9 -20 5 -4
7 3 4 14 -7 26 -19 34 -29 19z"/>
<path d="M3690 7451 c0 -7 -4 -9 -10 -6 -5 3 -10 1 -10 -4 0 -6 4 -11 9 -11
13 0 25 20 17 27 -3 4 -6 1 -6 -6z"/>
<path d="M3380 7446 c0 -2 7 -7 16 -10 8 -3 12 -2 9 4 -6 10 -25 14 -25 6z"/>
<path d="M3180 7430 c-9 -6 -10 -10 -3 -10 6 0 15 5 18 10 8 12 4 12 -15 0z"/>
<path d="M3595 7430 c-16 -7 -17 -9 -3 -9 9 -1 20 4 23 9 7 11 7 11 -20 0z"/>
<path d="M3505 7409 c-9 -14 -2 -20 14 -10 8 6 9 11 3 15 -6 3 -14 1 -17 -5z"/>
<path d="M3200 7396 c0 -2 13 -6 29 -8 17 -2 28 -1 25 4 -5 8 -54 12 -54 4z"/>
<path d="M3635 7390 c-3 -6 1 -7 9 -4 18 7 21 14 7 14 -6 0 -13 -4 -16 -10z"/>
<path d="M3680 7380 c0 -5 5 -10 10 -10 6 0 10 5 10 10 0 6 -4 10 -10 10 -5 0
-10 -4 -10 -10z"/>
<path d="M3282 7366 c7 -8 15 -12 17 -11 5 6 -10 25 -20 25 -5 0 -4 -6 3 -14z"/>
<path d="M3510 7372 c0 -5 7 -9 15 -9 8 0 12 4 9 9 -3 4 -9 8 -15 8 -5 0 -9
-4 -9 -8z"/>
<path d="M3350 7361 c0 -6 4 -13 10 -16 6 -3 7 1 4 9 -7 18 -14 21 -14 7z"/>
<path d="M3600 7360 c-9 -6 -10 -10 -3 -10 6 0 15 5 18 10 8 12 4 12 -15 0z"/>
<path d="M3390 7340 c0 -5 5 -10 11 -10 5 0 7 5 4 10 -3 6 -8 10 -11 10 -2 0
-4 -4 -4 -10z"/>
<path d="M3424 7324 c-2 -20 0 -21 12 -9 17 17 17 22 2 28 -8 3 -14 -5 -14
-19z"/>
<path d="M3488 7343 c6 -3 10 -9 6 -14 -8 -14 12 -11 24 4 8 9 4 12 -16 13
-15 1 -21 -1 -14 -3z"/>
<path d="M3620 7340 c0 -5 5 -10 11 -10 5 0 7 5 4 10 -3 6 -8 10 -11 10 -2 0
-4 -4 -4 -10z"/>
<path d="M3681 7336 c-9 -10 -8 -15 3 -19 10 -4 14 0 13 14 -2 23 -1 23 -16 5z"/>
<path d="M3377 7315 c3 -8 9 -12 14 -9 12 7 11 11 -5 17 -10 4 -13 1 -9 -8z"/>
<path d="M3520 7315 c-11 -13 -10 -14 4 -9 9 3 16 10 16 15 0 13 -6 11 -20 -6z"/>
<path d="M3590 7306 c0 -2 8 -10 18 -17 15 -13 16 -12 3 4 -13 16 -21 21 -21
13z"/>
<path d="M3446 7287 c3 -9 1 -24 -6 -32 -10 -11 -9 -18 4 -31 10 -9 19 -14 22
-12 2 3 -2 11 -10 17 -12 10 -13 17 -3 32 9 14 9 21 -1 31 -11 11 -12 10 -6
-5z"/>
<path d="M3542 7274 c-7 -8 -17 -12 -23 -9 -5 4 -9 1 -9 -4 0 -14 10 -13 39 3
13 7 20 16 15 19 -5 2 -15 -1 -22 -9z"/>
<path d="M3573 7245 c0 -7 6 -11 14 -8 7 3 13 6 13 8 0 2 -6 5 -13 8 -8 3 -14
-1 -14 -8z"/>
<path d="M3610 7253 c0 -15 18 -35 23 -27 3 5 -1 15 -9 22 -8 7 -14 9 -14 5z"/>
<path d="M3689 7258 c-6 -19 -6 -39 0 -42 4 -3 8 6 9 20 1 13 0 24 -3 24 -3 0
-5 -1 -6 -2z"/>
<path d="M3496 7237 c3 -10 9 -15 12 -12 3 3 0 11 -7 18 -10 9 -11 8 -5 -6z"/>
<path d="M3647 7199 c6 -23 9 -24 16 -5 3 8 0 17 -7 19 -10 4 -12 -1 -9 -14z"/>
<path d="M3605 7180 c3 -5 11 -10 16 -10 6 0 7 5 4 10 -3 6 -11 10 -16 10 -6
0 -7 -4 -4 -10z"/>
<path d="M3691 7134 c0 -11 3 -14 6 -6 3 7 2 16 -1 19 -3 4 -6 -2 -5 -13z"/>
<path d="M3625 7101 c-6 -11 13 -26 22 -17 4 3 1 6 -6 6 -7 0 -9 5 -6 10 3 6
4 10 1 10 -3 0 -7 -4 -11 -9z"/>
<path d="M2816 7524 c-5 -14 -4 -15 9 -4 17 14 19 20 6 20 -5 0 -12 -7 -15
-16z"/>
<path d="M2596 7513 c-6 -14 -5 -15 5 -6 7 7 10 15 7 18 -3 3 -9 -2 -12 -12z"/>
<path d="M2693 7519 c9 -6 15 -14 12 -19 -3 -4 2 -10 10 -13 10 -4 12 -1 8 11
-7 19 -23 32 -38 32 -5 -1 -2 -5 8 -11z"/>
<path d="M2839 7503 c-13 -16 -12 -17 4 -4 16 13 21 21 13 21 -2 0 -10 -8 -17
-17z"/>
<path d="M2750 7500 c0 -13 18 -22 24 -11 3 5 -1 11 -9 15 -8 3 -15 1 -15 -4z"/>
<path d="M2570 7480 c-9 -6 -10 -10 -3 -10 6 0 15 5 18 10 8 12 4 12 -15 0z"/>
<path d="M2671 7474 c0 -11 3 -14 6 -6 3 7 2 16 -1 19 -3 4 -6 -2 -5 -13z"/>
<path d="M2750 7461 c0 -6 4 -12 8 -15 5 -3 9 1 9 9 0 8 -4 15 -9 15 -4 0 -8
-4 -8 -9z"/>
<path d="M2910 7455 c0 -5 5 -17 10 -25 5 -8 10 -10 10 -5 0 6 -5 17 -10 25
-5 8 -10 11 -10 5z"/>
<path d="M2885 7430 c3 -5 8 -10 11 -10 2 0 4 5 4 10 0 6 -5 10 -11 10 -5 0
-7 -4 -4 -10z"/>
<path d="M2590 7420 c-9 -6 -10 -10 -3 -10 6 0 15 5 18 10 8 12 4 12 -15 0z"/>
<path d="M2699 7412 c12 -8 11 -11 -3 -15 -15 -4 -15 -5 1 -3 19 1 21 19 1 24
-10 3 -10 1 1 -6z"/>
<path d="M2757 7405 c-5 -11 0 -15 16 -15 12 0 18 4 12 8 -5 4 -13 11 -16 15
-4 4 -9 1 -12 -8z"/>
<path d="M2817 7408 c2 -5 13 -8 24 -8 10 0 19 3 19 8 0 4 -11 7 -24 7 -13 0
-22 -3 -19 -7z"/>
<path d="M2946 7404 c-5 -14 -4 -15 9 -4 17 14 19 20 6 20 -5 0 -12 -7 -15
-16z"/>
<path d="M2446 7402 c-2 -4 4 -8 14 -8 10 0 16 4 14 8 -3 4 -9 8 -14 8 -5 0
-11 -4 -14 -8z"/>
<path d="M2496 7377 c4 -12 1 -17 -12 -18 -15 0 -16 -2 -4 -7 8 -4 15 -17 14
-29 -1 -13 5 -23 12 -23 17 0 18 17 2 23 -7 2 -10 8 -6 12 4 4 16 2 25 -6 16
-12 17 -12 6 2 -7 9 -11 18 -8 21 3 3 -4 13 -15 23 -18 17 -20 17 -14 2z"/>
<path d="M2531 7373 c7 -10 14 -19 15 -21 1 -2 4 4 8 13 3 9 2 13 -4 10 -6 -3
-10 -1 -10 4 0 6 -5 11 -11 11 -8 0 -7 -6 2 -17z"/>
<path d="M2635 7380 c-4 -6 -11 -7 -17 -4 -7 4 -8 2 -4 -5 6 -9 12 -9 24 1 10
7 19 14 21 15 2 2 -1 3 -7 3 -6 0 -14 -5 -17 -10z"/>
<path d="M2850 7386 c0 -2 8 -10 18 -17 15 -13 16 -12 3 4 -13 16 -21 21 -21
13z"/>
<path d="M2753 7366 c3 -8 3 -17 -1 -19 -4 -2 -1 -2 6 -1 6 2 12 -2 12 -8 0
-6 3 -8 6 -5 4 4 2 13 -4 20 -7 8 -9 17 -5 20 3 4 1 7 -6 7 -7 0 -11 -6 -8
-14z"/>
<path d="M2570 7366 c0 -2 7 -7 16 -10 8 -3 12 -2 9 4 -6 10 -25 14 -25 6z"/>
<path d="M2979 7361 c9 -6 10 -10 2 -14 -8 -4 -8 -5 1 -3 20 4 21 26 1 26 -14
0 -15 -2 -4 -9z"/>
<path d="M3035 7360 c3 -5 8 -10 11 -10 2 0 4 5 4 10 0 6 -5 10 -11 10 -5 0
-7 -4 -4 -10z"/>
<path d="M2304 7349 c-3 -6 -3 -13 0 -16 3 -4 6 -1 6 7 0 10 3 10 15 0 9 -7
17 -11 20 -9 2 3 -4 10 -15 17 -13 8 -21 8 -26 1z"/>
<path d="M2666 7351 c-3 -5 1 -11 9 -14 9 -4 12 -1 8 9 -6 16 -10 17 -17 5z"/>
<path d="M2410 7336 c0 -2 8 -10 18 -17 15 -13 16 -12 3 4 -13 16 -21 21 -21
13z"/>
<path d="M2836 7308 c1 -25 52 -108 53 -87 1 3 -8 16 -19 29 -11 13 -20 36
-20 51 0 15 -3 30 -7 32 -5 3 -8 -9 -7 -25z"/>
<path d="M2265 7320 c-3 -6 1 -7 9 -4 18 7 21 14 7 14 -6 0 -13 -4 -16 -10z"/>
<path d="M2560 7325 c0 -5 5 -17 10 -25 5 -8 10 -10 10 -5 0 6 -5 17 -10 25
-5 8 -10 11 -10 5z"/>
<path d="M2729 7321 c7 -5 9 -11 5 -13 -5 -3 -3 -3 4 -2 6 2 12 -1 12 -7 0 -6
5 -7 11 -4 11 7 -17 34 -36 35 -5 0 -4 -4 4 -9z"/>
<path d="M2692 7306 c7 -8 15 -12 17 -11 5 6 -10 25 -20 25 -5 0 -4 -6 3 -14z"/>
<path d="M2455 7300 c3 -5 8 -10 11 -10 2 0 4 5 4 10 0 6 -5 10 -11 10 -5 0
-7 -4 -4 -10z"/>
<path d="M3006 7295 c-5 -15 11 -31 21 -21 4 3 0 6 -8 6 -12 0 -12 2 0 9 8 5
9 11 3 15 -5 3 -12 -1 -16 -9z"/>
<path d="M2665 7289 c-5 -8 -4 -10 3 -5 8 5 12 -1 13 -16 1 -18 2 -19 6 -4 6
23 -12 43 -22 25z"/>
<path d="M2347 7279 c7 -7 15 -10 18 -7 3 3 -2 9 -12 12 -14 6 -15 5 -6 -5z"/>
<path d="M2957 7269 c4 -13 8 -18 11 -10 2 7 -1 18 -6 23 -8 8 -9 4 -5 -13z"/>
<path d="M2270 7265 c-11 -13 -10 -14 4 -9 9 3 16 10 16 15 0 13 -6 11 -20 -6z"/>
<path d="M2575 7270 c3 -5 8 -10 11 -10 2 0 4 5 4 10 0 6 -5 10 -11 10 -5 0
-7 -4 -4 -10z"/>
<path d="M2642 7266 c7 -8 15 -12 17 -11 5 6 -10 25 -20 25 -5 0 -4 -6 3 -14z"/>
<path d="M3057 7269 c7 -7 15 -10 18 -7 3 3 -2 9 -12 12 -14 6 -15 5 -6 -5z"/>
<path d="M2401 7247 c-13 -21 -12 -21 5 -5 10 10 16 20 13 22 -3 3 -11 -5 -18
-17z"/>
<path d="M2923 7256 c-6 -8 -9 -17 -6 -20 4 -3 2 -6 -3 -6 -14 0 -11 -53 3
-57 6 -2 14 1 18 6 3 7 0 8 -9 5 -19 -7 -19 -6 -5 34 6 18 15 29 20 26 5 -3 6
2 3 10 -7 19 -6 19 -21 2z"/>
<path d="M2525 7243 c5 -19 3 -22 -12 -17 -14 5 -15 4 -4 -4 16 -11 41 -5 41
10 0 5 4 7 10 3 5 -3 7 -13 4 -23 -5 -14 -4 -15 5 -2 10 13 12 13 20 0 5 -8 7
-19 3 -25 -3 -5 1 -4 10 2 8 7 17 11 19 9 2 -2 10 2 17 10 13 14 4 18 -36 17
-8 -1 -11 5 -7 14 4 13 3 14 -10 3 -14 -11 -19 -7 -16 13 2 12 -17 8 -22 -5
-4 -10 -8 -9 -17 2 -9 12 -10 11 -5 -7z m95 -27 c0 -3 -4 -8 -10 -11 -5 -3
-10 -1 -10 4 0 6 5 11 10 11 6 0 10 -2 10 -4z"/>
<path d="M2615 7250 c-3 -5 -2 -10 4 -10 5 0 13 5 16 10 3 6 2 10 -4 10 -5 0
-13 -4 -16 -10z"/>
<path d="M2806 7247 c3 -10 9 -15 12 -12 3 3 0 11 -7 18 -10 9 -11 8 -5 -6z"/>
<path d="M2180 7246 c0 -2 8 -10 18 -17 15 -13 16 -12 3 4 -13 16 -21 21 -21
13z"/>
<path d="M2480 7239 c0 -5 5 -7 10 -4 6 3 10 8 10 11 0 2 -4 4 -10 4 -5 0 -10
-5 -10 -11z"/>
<path d="M3149 7233 c-13 -16 -12 -17 4 -4 9 7 17 15 17 17 0 8 -8 3 -21 -13z"/>
<path d="M2413 7227 c-4 -6 -1 -7 7 -2 7 4 15 3 19 -3 4 -6 10 -5 18 3 9 10 6
13 -13 13 -13 0 -27 -5 -31 -11z"/>
<path d="M2665 7230 c-3 -5 -1 -10 4 -10 6 0 11 5 11 10 0 6 -2 10 -4 10 -3 0
-8 -4 -11 -10z"/>
<path d="M2761 7222 c-16 -30 22 -62 46 -39 4 5 4 8 -2 7 -36 -8 -53 34 -17
43 16 4 16 5 0 6 -10 0 -22 -7 -27 -17z"/>
<path d="M2844 7224 c9 -11 23 -28 32 -39 9 -11 7 -4 -5 15 -11 19 -25 36 -31
38 -7 3 -5 -4 4 -14z"/>
<path d="M3221 7237 c2 -1 13 -9 24 -17 19 -14 19 -14 6 3 -7 9 -18 17 -24 17
-6 0 -8 -1 -6 -3z"/>
<path d="M2984 7222 c-6 -4 -7 -17 -3 -32 l7 -25 1 27 c1 14 7 29 14 31 6 3 8
6 2 6 -5 0 -15 -3 -21 -7z"/>
<path d="M3095 7220 c-3 -6 1 -7 9 -4 18 7 21 14 7 14 -6 0 -13 -4 -16 -10z"/>
<path d="M2357 7201 c-4 -17 -3 -21 5 -13 5 5 8 16 6 23 -3 8 -7 3 -11 -10z"/>
<path d="M3155 7210 c-4 -6 -11 -7 -17 -4 -6 4 -8 2 -5 -4 4 -5 16 -8 27 -5
11 3 17 9 14 14 -7 12 -11 11 -19 -1z"/>
<path d="M2149 7199 c5 -6 7 -17 5 -24 -3 -7 -1 -15 4 -19 13 -8 8 33 -6 44
-8 7 -9 7 -3 -1z"/>
<path d="M2195 7200 c3 -5 11 -10 16 -10 6 0 7 5 4 10 -3 6 -11 10 -16 10 -6
0 -7 -4 -4 -10z"/>
<path d="M2466 7198 c3 -5 10 -6 15 -3 13 9 11 12 -6 12 -8 0 -12 -4 -9 -9z"/>
<path d="M2697 7204 c-3 -5 1 -15 9 -22 16 -14 18 -5 5 17 -5 7 -11 9 -14 5z"/>
<path d="M3104 7199 c-3 -6 2 -20 13 -31 16 -16 20 -16 20 -4 0 9 -7 16 -15
16 -8 0 -12 6 -8 15 6 17 0 20 -10 4z"/>
<path d="M2080 7190 c-8 -5 -12 -12 -9 -15 4 -3 12 1 19 10 14 17 11 19 -10 5z"/>
<path d="M2655 7190 c3 -5 8 -10 11 -10 2 0 4 5 4 10 0 6 -5 10 -11 10 -5 0
-7 -4 -4 -10z"/>
<path d="M3197 7189 c7 -7 15 -10 18 -7 3 3 -2 9 -12 12 -14 6 -15 5 -6 -5z"/>
<path d="M3237 7187 c-3 -8 1 -14 8 -14 7 0 11 6 8 14 -3 7 -6 13 -8 13 -2 0
-5 -6 -8 -13z"/>
<path d="M2437 7177 c-3 -8 8 -12 32 -13 20 -1 29 1 21 3 -8 3 -22 10 -32 14
-10 6 -18 4 -21 -4z"/>
<path d="M2523 7182 c-9 -6 -8 -10 5 -18 13 -8 21 -6 35 8 9 10 13 18 8 18 -6
0 -13 -4 -16 -10 -3 -5 -11 -10 -16 -10 -6 0 -7 5 -4 10 7 12 4 12 -12 2z"/>
<path d="M3060 7186 c0 -2 6 -9 13 -15 10 -8 14 -7 14 4 0 8 -6 15 -14 15 -7
0 -13 -2 -13 -4z"/>
<path d="M2180 7170 c0 -5 5 -10 11 -10 5 0 7 5 4 10 -3 6 -8 10 -11 10 -2 0
-4 -4 -4 -10z"/>
<path d="M2670 7170 c-9 -6 -10 -10 -3 -10 6 0 15 5 18 10 8 12 4 12 -15 0z"/>
<path d="M2550 7133 c-19 -21 -23 -27 -9 -15 20 18 28 20 33 10 3 -7 4 -5 3 6
-1 10 4 21 12 24 10 3 12 0 8 -11 -3 -9 -2 -19 2 -21 5 -3 8 4 7 16 -2 34 -19
31 -56 -9z"/>
<path d="M2897 7148 c21 -10 22 -12 5 -24 -15 -12 -15 -12 6 -7 12 3 22 9 22
14 0 9 -34 29 -47 28 -4 0 2 -5 14 -11z"/>
<path d="M3156 7143 c-6 -14 -5 -15 5 -6 7 7 10 15 7 18 -3 3 -9 -2 -12 -12z"/>
<path d="M3218 7153 c7 -3 16 -2 19 1 4 3 -2 6 -13 5 -11 0 -14 -3 -6 -6z"/>
<path d="M3326 7152 c-3 -5 1 -9 9 -9 8 0 12 4 9 9 -3 4 -7 8 -9 8 -2 0 -6 -4
-9 -8z"/>
<path d="M2438 7143 c7 -3 16 -2 19 1 4 3 -2 6 -13 5 -11 0 -14 -3 -6 -6z"/>
<path d="M2515 7140 c-3 -5 -1 -10 4 -10 6 0 11 5 11 10 0 6 -2 10 -4 10 -3 0
-8 -4 -11 -10z"/>
<path d="M2696 7125 c24 -39 24 -40 24 -28 0 6 -9 21 -21 34 l-20 24 17 -30z"/>
<path d="M2750 7140 c0 -5 5 -10 11 -10 5 0 7 5 4 10 -3 6 -8 10 -11 10 -2 0
-4 -4 -4 -10z"/>
<path d="M2996 7142 c-2 -4 4 -8 14 -8 10 0 16 4 14 8 -3 4 -9 8 -14 8 -5 0
-11 -4 -14 -8z"/>
<path d="M3184 7129 c0 -13 3 -15 13 -7 7 6 13 12 13 13 0 2 -6 5 -13 8 -7 3
-13 -3 -13 -14z"/>
<path d="M2270 7131 c0 -6 4 -13 10 -16 6 -3 7 1 4 9 -7 18 -14 21 -14 7z"/>
<path d="M2652 7120 c-7 -11 -8 -20 -3 -20 9 0 24 30 18 36 -1 2 -8 -6 -15
-16z"/>
<path d="M2730 7131 c0 -6 4 -13 10 -16 6 -3 7 1 4 9 -7 18 -14 21 -14 7z"/>
<path d="M3254 7126 c10 -8 15 -19 11 -25 -3 -6 -4 -11 -1 -11 3 0 11 10 17
23 6 12 8 19 4 15 -4 -4 -17 -3 -29 3 -20 10 -20 9 -2 -5z"/>
<path d="M3075 7120 c3 -6 1 -10 -6 -10 -7 0 -10 -3 -6 -6 3 -3 13 -2 22 4 16
8 16 9 1 15 -10 4 -15 3 -11 -3z"/>
<path d="M3216 7122 c-2 -4 -1 -14 4 -22 7 -11 9 -9 7 8 -1 24 -3 26 -11 14z"/>
<path d="M3303 7116 c0 -8 5 -12 10 -9 7 4 8 -1 3 -13 -6 -15 -5 -17 5 -6 11
10 10 15 -2 28 -14 13 -16 13 -16 0z"/>
<path d="M3365 7120 c-3 -5 -1 -10 4 -10 6 0 11 5 11 10 0 6 -2 10 -4 10 -3 0
-8 -4 -11 -10z"/>
<path d="M1980 7111 c0 -5 7 -11 14 -14 10 -4 13 -1 9 9 -6 15 -23 19 -23 5z"/>
<path d="M2350 7110 c-8 -5 -10 -10 -3 -10 6 0 10 -8 8 -17 -1 -10 0 -12 2 -5
3 9 14 12 31 8 l27 -5 -28 13 c-15 6 -24 15 -21 19 10 10 2 8 -16 -3z"/>
<path d="M2616 7112 c-2 -4 -1 -14 4 -22 7 -11 9 -9 7 8 -1 24 -3 26 -11 14z"/>
<path d="M2760 7112 c0 -6 -8 -13 -17 -15 -16 -4 -16 -5 -1 -6 18 -1 34 16 24
26 -3 4 -6 1 -6 -5z"/>
<path d="M2790 7113 c0 -7 11 -25 24 -40 18 -20 28 -25 36 -17 8 8 6 15 -7 25
-16 13 -17 12 -4 -3 9 -12 10 -18 2 -18 -6 0 -20 15 -31 33 -11 17 -20 27 -20
20z"/>
<path d="M2973 7102 c1 -12 6 -18 15 -15 7 3 10 9 5 12 -4 3 -11 10 -15 15 -4
4 -6 -1 -5 -12z"/>
<path d="M3386 7103 c-6 -14 -5 -15 5 -6 7 7 10 15 7 18 -3 3 -9 -2 -12 -12z"/>
<path d="M2170 7101 c0 -10 19 -25 25 -20 1 2 -3 10 -11 17 -8 7 -14 8 -14 3z"/>
<path d="M2566 7093 c-6 -14 -5 -15 5 -6 7 7 10 15 7 18 -3 3 -9 -2 -12 -12z"/>
<path d="M3020 7101 c0 -6 4 -13 10 -16 6 -3 7 1 4 9 -7 18 -14 21 -14 7z"/>
<path d="M3115 7100 c-3 -6 1 -7 9 -4 18 7 21 14 7 14 -6 0 -13 -4 -16 -10z"/>
<path d="M2070 7090 c0 -5 5 -10 10 -10 6 0 10 5 10 10 0 6 -4 10 -10 10 -5 0
-10 -4 -10 -10z"/>
<path d="M2296 7086 c4 -11 1 -16 -10 -16 -9 0 -16 5 -16 10 0 6 -5 10 -12 10
-8 0 -6 -6 4 -17 13 -12 22 -14 39 -7 19 9 20 11 5 23 -14 12 -16 12 -10 -3z"/>
<path d="M2678 7093 c6 -2 9 -10 6 -15 -4 -7 -2 -8 5 -4 13 9 5 26 -12 25 -9
0 -8 -2 1 -6z"/>
<path d="M2870 7089 c0 -5 5 -7 10 -4 6 3 10 8 10 11 0 2 -4 4 -10 4 -5 0 -10
-5 -10 -11z"/>
<path d="M3405 7090 c-4 -6 1 -7 11 -3 13 5 15 2 9 -18 -6 -19 -5 -22 5 -12 7
6 10 19 7 27 -7 18 -23 21 -32 6z"/>
<path d="M2110 7086 c0 -2 7 -7 16 -10 8 -3 12 -2 9 4 -6 10 -25 14 -25 6z"/>
<path d="M3056 7082 c-11 -18 11 -33 34 -24 14 5 19 11 12 16 -6 3 -13 2 -17
-4 -4 -6 -11 -7 -17 -4 -6 4 -5 10 3 15 10 6 10 9 2 9 -6 0 -14 -4 -17 -8z"/>
<path d="M3343 7075 c0 -18 33 -20 43 -3 4 7 3 8 -5 4 -6 -4 -18 -3 -25 3 -9
8 -13 7 -13 -4z"/>
<path d="M2035 7070 c3 -5 8 -10 11 -10 2 0 4 5 4 10 0 6 -5 10 -11 10 -5 0
-7 -4 -4 -10z"/>
<path d="M2583 7059 c1 -9 6 -15 12 -12 16 5 15 30 -1 30 -7 0 -12 -8 -11 -18z"/>
<path d="M2656 7063 c-6 -14 -5 -15 5 -6 7 7 10 15 7 18 -3 3 -9 -2 -12 -12z"/>
<path d="M2755 7070 c-3 -5 -2 -10 4 -10 5 0 13 5 16 10 3 6 2 10 -4 10 -5 0
-13 -4 -16 -10z"/>
<path d="M2893 7061 c0 -11 5 -18 9 -15 4 3 5 11 1 19 -7 21 -12 19 -10 -4z"/>
<path d="M2921 7054 c-6 -15 -9 -29 -6 -32 3 -3 5 1 5 9 0 12 2 11 11 -1 8
-12 9 -10 4 8 -7 23 9 32 18 10 4 -8 6 -9 6 -2 1 6 -5 17 -12 23 -11 8 -17 5
-26 -15z"/>
<path d="M2997 7063 c3 -7 0 -13 -6 -13 -16 0 -13 -17 5 -24 8 -3 12 -2 9 4
-3 5 -1 18 4 28 7 14 6 19 -4 19 -7 0 -11 -6 -8 -14z"/>
<path d="M3219 7063 c-13 -16 -12 -17 4 -4 16 13 21 21 13 21 -2 0 -10 -8 -17
-17z"/>
<path d="M2248 7059 c6 -9 8 -20 4 -24 -4 -5 -1 -5 6 -1 7 4 12 1 12 -8 0 -8
4 -17 9 -20 18 -12 -1 33 -22 51 -15 12 -18 13 -9 2z"/>
<path d="M2332 7050 c0 -14 2 -19 5 -12 2 6 2 18 0 25 -3 6 -5 1 -5 -13z"/>
<path d="M2451 7054 c0 -11 3 -14 6 -6 3 7 2 16 -1 19 -3 4 -6 -2 -5 -13z"/>
<path d="M2491 7056 c-13 -16 -4 -49 11 -40 6 4 5 10 -3 14 -10 7 -10 11 0 24
8 9 11 16 8 16 -2 0 -10 -6 -16 -14z"/>
<path d="M3113 7054 c-16 -16 -17 -32 -2 -17 6 6 19 9 28 6 9 -3 12 -1 6 4 -5
4 -12 11 -15 15 -3 3 -11 0 -17 -8z"/>
<path d="M3305 7059 c-11 -17 1 -21 15 -4 8 9 8 15 2 15 -6 0 -14 -5 -17 -11z"/>
<path d="M3457 7053 c5 -12 3 -14 -7 -8 -9 5 -11 4 -6 -4 6 -9 11 -9 22 0 14
11 10 29 -6 29 -5 0 -6 -7 -3 -17z"/>
<path d="M2010 7050 c0 -5 7 -10 16 -10 8 0 12 5 9 10 -3 6 -10 10 -16 10 -5
0 -9 -4 -9 -10z"/>
<path d="M2089 7043 c-13 -16 -12 -17 4 -4 9 7 17 15 17 17 0 8 -8 3 -21 -13z"/>
<path d="M2186 7045 c-9 -26 -7 -32 5 -12 6 10 9 21 6 23 -2 3 -7 -2 -11 -11z"/>
<path d="M2410 7049 c0 -5 5 -7 10 -4 6 3 10 8 10 11 0 2 -4 4 -10 4 -5 0 -10
-5 -10 -11z"/>
<path d="M2620 7050 c0 -5 5 -10 11 -10 5 0 9 -8 7 -17 -3 -22 9 -43 25 -43 6
0 2 7 -9 16 -17 14 -17 15 -1 10 16 -5 16 -3 -3 24 -22 32 -30 37 -30 20z"/>
<path d="M2675 7049 c-11 -16 -1 -19 13 -3 7 8 8 14 3 14 -5 0 -13 -5 -16 -11z"/>
<path d="M3024 7049 c-3 -6 -1 -16 6 -22 10 -9 11 -9 5 2 -4 8 -2 17 6 22 9 6
10 9 2 9 -6 0 -15 -5 -19 -11z"/>
<path d="M1855 7025 c-16 -13 -24 -24 -17 -25 6 0 12 5 12 10 0 6 7 10 15 10
8 0 15 5 15 11 0 5 5 7 10 4 6 -3 10 -1 10 4 0 17 -12 13 -45 -14z"/>
<path d="M2550 7040 c0 -5 5 -10 10 -10 6 0 10 5 10 10 0 6 -4 10 -10 10 -5 0
-10 -4 -10 -10z"/>
<path d="M3350 7040 c-13 -8 -13 -10 2 -10 9 0 20 5 23 10 8 13 -5 13 -25 0z"/>
<path d="M1915 7030 c3 -5 8 -10 11 -10 2 0 4 5 4 10 0 6 -5 10 -11 10 -5 0
-7 -4 -4 -10z"/>
<path d="M1943 7025 c0 -8 4 -12 9 -9 5 3 6 10 3 15 -9 13 -12 11 -12 -6z"/>
<path d="M1980 7030 c-9 -6 -10 -10 -3 -10 6 0 15 5 18 10 8 12 4 12 -15 0z"/>
<path d="M2806 7023 c-6 -14 -5 -15 5 -6 7 7 10 15 7 18 -3 3 -9 -2 -12 -12z"/>
<path d="M3060 7030 c0 -5 5 -10 11 -10 5 0 7 5 4 10 -3 6 -8 10 -11 10 -2 0
-4 -4 -4 -10z"/>
<path d="M3410 7032 c0 -12 19 -26 26 -19 2 2 -2 10 -11 17 -9 8 -15 8 -15 2z"/>
<path d="M2026 7016 c10 -8 21 -12 24 -10 5 6 -21 24 -34 24 -6 0 -1 -6 10
-14z"/>
<path d="M2106 7015 c4 -8 11 -15 16 -15 6 0 5 6 -2 15 -7 8 -14 15 -16 15 -2
0 -1 -7 2 -15z"/>
<path d="M2420 7026 c0 -2 8 -10 18 -17 15 -13 16 -12 3 4 -13 16 -21 21 -21
13z"/>
<path d="M2840 7015 c-11 -13 -10 -15 4 -9 11 4 16 1 17 -12 0 -11 3 -14 5 -7
3 7 1 19 -4 28 -8 15 -10 15 -22 0z"/>
<path d="M2880 7020 c0 -5 5 -10 11 -10 5 0 7 5 4 10 -3 6 -8 10 -11 10 -2 0
-4 -4 -4 -10z"/>
<path d="M3466 7022 c-3 -5 1 -9 9 -9 8 0 12 4 9 9 -3 4 -7 8 -9 8 -2 0 -6 -4
-9 -8z"/>
<path d="M1885 7010 c-3 -5 -2 -10 4 -10 5 0 13 5 16 10 3 6 2 10 -4 10 -5 0
-13 -4 -16 -10z"/>
<path d="M2200 7010 c0 -5 5 -10 11 -10 5 0 7 5 4 10 -3 6 -8 10 -11 10 -2 0
-4 -4 -4 -10z"/>
<path d="M2307 7014 c-8 -13 20 -41 30 -30 3 3 1 6 -5 6 -6 0 -12 8 -14 18 -2
11 -6 13 -11 6z"/>
<path d="M3520 7009 c0 -5 5 -7 10 -4 6 3 10 8 10 11 0 2 -4 4 -10 4 -5 0 -10
-5 -10 -11z"/>
<path d="M1950 6995 c-24 -13 -24 -14 -3 -12 12 1 25 7 27 14 6 16 7 16 -24
-2z"/>
<path d="M2000 7000 c-8 -5 -12 -12 -9 -15 4 -3 12 1 19 10 14 17 11 19 -10 5z"/>
<path d="M2467 7003 c-10 -9 -9 -23 1 -23 5 0 9 7 9 15 0 17 -1 18 -10 8z"/>
<path d="M2500 6995 c-8 -9 -8 -15 -2 -15 12 0 26 19 19 26 -2 2 -10 -2 -17
-11z"/>
<path d="M2570 7001 c0 -10 19 -25 25 -20 1 2 -3 10 -11 17 -8 7 -14 8 -14 3z"/>
<path d="M2935 6999 c-4 -6 -13 -8 -21 -5 -7 3 -15 2 -18 -2 -9 -14 33 -11 45
4 6 8 9 14 6 14 -3 0 -9 -5 -12 -11z"/>
<path d="M3266 6996 c7 -18 34 -22 34 -4 0 6 -3 8 -7 5 -3 -4 -12 -2 -20 5
-11 8 -12 7 -7 -6z"/>
<path d="M3390 7006 c0 -3 9 -10 20 -16 11 -6 20 -8 20 -6 0 3 -9 10 -20 16
-11 6 -20 8 -20 6z"/>
<path d="M1900 6990 c-9 -6 -10 -10 -3 -10 6 0 15 5 18 10 8 12 4 12 -15 0z"/>
<path d="M2055 6990 l-40 -7 43 -2 c23 0 42 4 42 9 0 6 -1 9 -2 9 -2 -1 -21
-5 -43 -9z"/>
<path d="M2131 6990 c-9 -5 -4 -7 13 -7 29 0 32 2 13 10 -8 3 -20 2 -26 -3z"/>
<path d="M2385 6990 c3 -5 8 -10 11 -10 2 0 4 5 4 10 0 6 -5 10 -11 10 -5 0
-7 -4 -4 -10z"/>
<path d="M2710 6990 c8 -5 20 -10 25 -10 6 0 3 5 -5 10 -8 5 -19 10 -25 10 -5
0 -3 -5 5 -10z"/>
<path d="M2248 6983 c7 -3 16 -2 19 1 4 3 -2 6 -13 5 -11 0 -14 -3 -6 -6z"/>
<path d="M2428 6983 c7 -3 16 -2 19 1 4 3 -2 6 -13 5 -11 0 -14 -3 -6 -6z"/>
<path d="M2773 6983 c9 -2 25 -2 35 0 9 3 1 5 -18 5 -19 0 -27 -2 -17 -5z"/>
<path d="M2958 6983 c7 -3 16 -2 19 1 4 3 -2 6 -13 5 -11 0 -14 -3 -6 -6z"/>
<path d="M7560 9080 c-711 -5 -715 -5 -774 -28 -88 -33 -141 -67 -206 -132
-71 -71 -135 -195 -150 -290 -13 -88 -13 -1384 1 -1470 6 -39 27 -101 54 -156
35 -72 57 -103 107 -150 121 -112 211 -144 410 -144 l128 0 0 -249 c0 -247 0
-250 22 -265 12 -9 34 -16 48 -16 26 1 61 31 414 359 l177 164 502 2 c536 3
534 3 638 55 123 62 219 171 268 303 l26 72 3 732 c2 630 1 741 -13 798 -24
107 -62 172 -145 255 -84 85 -167 131 -265 149 -78 15 -371 17 -1245 11z
m1251 -96 c120 -36 218 -108 276 -205 63 -106 63 -99 63 -884 0 -625 -2 -718
-16 -766 -54 -181 -195 -310 -371 -338 -35 -5 -179 -7 -335 -5 -150 3 -361 1
-469 -3 -229 -10 -210 -2 -357 -145 -48 -46 -141 -133 -207 -193 -66 -60 -136
-124 -156 -142 l-35 -34 4 246 c3 136 1 250 -4 255 -5 5 -79 12 -164 15 -86 4
-180 13 -210 22 -162 44 -280 171 -316 342 -18 84 -21 1381 -3 1477 31 172
161 311 336 359 38 10 240 13 979 14 828 1 936 -1 985 -15z"/>
<path d="M7814 7425 c0 -121 2 -169 3 -107 2 62 2 161 0 220 -1 59 -3 8 -3
-113z"/>
<path d="M8198 7603 c7 -3 16 -2 19 1 4 3 -2 6 -13 5 -11 0 -14 -3 -6 -6z"/>
<path d="M7081 7384 c0 -11 3 -14 6 -6 3 7 2 16 -1 19 -3 4 -6 -2 -5 -13z"/>
<path d="M7082 7300 c0 -19 2 -27 5 -17 2 9 2 25 0 35 -3 9 -5 1 -5 -18z"/>
<path d="M4135 7885 c-29 -28 -31 -42 -9 -73 17 -25 74 -31 92 -9 24 30 23 56
-2 82 -31 31 -50 32 -81 0z"/>
<path d="M4462 7894 c-24 -16 -29 -53 -12 -85 15 -28 74 -26 94 3 22 31 20 54
-6 78 -26 24 -46 25 -76 4z"/>
<path d="M4782 7894 c-26 -18 -30 -65 -6 -88 23 -24 70 -20 88 6 21 30 20 54
-4 78 -24 24 -48 25 -78 4z"/>
<path d="M4780 7570 c-39 -39 -14 -100 42 -100 53 0 79 74 36 104 -30 21 -54
20 -78 -4z"/>
<path d="M4782 7254 c-44 -31 -16 -104 40 -104 26 0 58 36 58 64 0 26 -33 56
-60 56 -9 0 -26 -7 -38 -16z"/>
<path d="M4782 6934 c-12 -8 -22 -26 -22 -40 0 -29 32 -64 60 -64 26 0 60 34
60 60 0 25 -34 60 -58 60 -10 0 -28 -7 -40 -16z"/>
<path d="M3615 6550 c-94 -4 -118 -9 -167 -33 -67 -33 -121 -90 -155 -164
l-25 -54 1 -1687 c1 -1187 5 -1690 13 -1699 14 -17 33 -16 52 3 15 14 16 179
16 1691 0 1620 0 1676 19 1716 10 23 36 59 57 79 77 73 -49 68 1579 68 1415 0
1468 0 1508 -19 55 -24 105 -75 131 -131 l21 -45 3 -2070 c2 -2314 8 -2137
-69 -2220 -22 -23 -63 -53 -92 -66 l-52 -24 -1455 0 -1455 0 -53 29 c-55 31
-102 83 -85 95 5 3 87 99 181 212 171 206 172 207 219 214 199 30 326 184 310
376 -8 100 -51 173 -131 226 l-44 29 104 80 c120 92 133 112 108 173 -31 78
-68 80 -172 8 -42 -30 -129 -89 -192 -132 -144 -99 -217 -172 -303 -302 -57
-87 -90 -123 -224 -244 -156 -141 -348 -299 -363 -299 -13 0 -58 137 -90 275
-37 157 -70 260 -122 380 -83 188 -210 371 -338 487 l-62 56 35 171 c19 95 36
173 38 175 2 3 27 0 54 -5 138 -27 268 43 315 169 12 30 26 102 32 159 12 101
13 103 38 103 14 0 41 8 60 18 68 34 60 113 -25 243 -36 54 -55 98 -72 164
-27 101 -62 183 -99 233 -25 32 -25 34 -9 52 39 43 -12 158 -98 222 -51 37
-146 81 -209 97 -74 18 -233 16 -313 -4 -143 -36 -281 -117 -370 -217 -52 -60
-127 -206 -146 -288 -18 -77 -16 -240 5 -325 24 -103 104 -255 199 -381 l83
-112 -12 -123 c-24 -236 -13 -209 -112 -268 -313 -185 -500 -415 -570 -701
-50 -202 -59 -374 -61 -1162 l-2 -666 25 -29 24 -28 899 -5 c494 -3 912 -4
930 -2 17 2 43 14 57 27 24 22 26 30 26 112 0 48 -7 146 -14 216 l-14 129 26
26 c18 19 289 334 328 381 2 2 26 -17 55 -43 36 -33 69 -52 116 -66 64 -20 91
-20 1492 -20 1581 0 1496 -3 1597 65 l50 35 1325 0 c1299 0 1325 0 1356 20 18
11 35 31 39 45 13 52 -3 794 -20 905 -66 438 -303 698 -759 835 -195 58 -164
71 -428 -185 l-226 -219 -139 209 c-99 150 -146 212 -163 216 -51 14 -284 -86
-418 -178 -83 -57 -202 -178 -260 -264 -85 -125 -162 -310 -188 -454 l-13 -75
-2 200 c-1 110 -2 889 -1 1730 0 1039 -4 1548 -11 1585 -20 108 -83 191 -176
237 l-57 28 -1390 5 c-764 3 -1439 3 -1500 0z"/>
<path d="M5063 5912 l-103 -3 0 -285 0 -285 56 4 57 4 -2 96 -2 97 63 0 c124
1 177 26 216 100 54 106 -1 248 -102 265 -56 9 -79 10 -183 7z m133 -102 c37
-15 53 -38 54 -81 0 -57 -36 -84 -113 -84 l-62 0 -3 88 -3 87 50 0 c27 0 62
-5 77 -10z"/>
<path d="M5735 5900 c3 -8 46 -85 95 -171 l90 -156 0 -112 0 -111 58 0 57 0
-3 106 -3 105 100 175 c56 96 101 175 101 177 0 1 -28 1 -62 1 l-63 -2 -26
-43 c-14 -24 -43 -75 -64 -113 l-37 -69 -57 109 -56 109 -68 5 c-57 4 -66 3
-62 -10z"/>
<path d="M4045 5893 c-14 -36 -195 -545 -195 -549 0 -2 26 -4 59 -4 l58 0 22
60 22 60 107 0 107 0 20 -57 20 -58 63 0 c34 0 62 2 62 5 0 3 -45 129 -99 280
l-99 275 -70 3 c-59 2 -71 0 -77 -15z m110 -223 c15 -47 30 -91 33 -97 3 -10
-14 -13 -67 -13 -39 0 -71 3 -71 7 0 22 65 202 71 195 4 -4 19 -45 34 -92z"/>
<path d="M4462 5628 l3 -283 58 -3 57 -3 0 103 0 103 80 2 c101 2 141 15 179
59 38 42 45 68 39 144 -5 64 -23 98 -72 134 -24 19 -44 21 -187 24 l-159 3 2
-283z m258 174 c59 -29 67 -104 15 -138 -14 -9 -54 -19 -89 -21 l-64 -6 -4 59
c-1 33 -2 74 0 92 3 32 4 32 55 32 30 0 67 -8 87 -18z"/>
<path d="M5450 5630 l0 -280 170 0 170 0 0 48 0 47 -111 0 -112 0 2 233 1 232
-60 0 -60 0 0 -280z"/>
<path d="M7700 5759 c-258 -67 -472 -267 -488 -455 -4 -50 -2 -56 28 -84 29
-27 31 -32 21 -62 -19 -60 -41 -199 -47 -297 -10 -155 26 -366 84 -481 85
-169 292 -270 531 -257 202 10 402 107 572 277 239 239 322 573 219 883 -109
325 -359 498 -720 496 -91 0 -146 -5 -200 -20z"/>
<path d="M5521 3783 c7 -12 15 -20 18 -17 3 2 -3 12 -13 22 -17 16 -18 16 -5
-5z"/>
<path d="M5286 3483 c-6 -14 -5 -15 5 -6 7 7 10 15 7 18 -3 3 -9 -2 -12 -12z"/>
<path d="M5642 3440 c0 -14 2 -19 5 -12 2 6 2 18 0 25 -3 6 -5 1 -5 -13z"/>
<path d="M4804 3394 c-18 -14 -18 -15 4 -4 12 6 22 13 22 15 0 8 -5 6 -26 -11z"/>
<path d="M4750 3296 c0 -2 8 -10 18 -17 15 -13 16 -12 3 4 -13 16 -21 21 -21
13z"/>
<path d="M4890 3157 c0 -2 15 -16 33 -33 l32 -29 -29 33 c-28 30 -36 37 -36
29z"/>
<path d="M4530 2986 c0 -2 8 -10 18 -17 15 -13 16 -12 3 4 -13 16 -21 21 -21
13z"/>
<path d="M4562 2298 c-15 -15 -15 -41 0 -56 9 -9 132 -12 493 -12 474 0 482 0
501 21 14 15 16 24 7 37 -9 16 -53 17 -499 20 -373 2 -493 -1 -502 -10z"/>
<path d="M4970 1550 c-11 -11 -20 -29 -20 -40 0 -27 35 -60 63 -60 50 0 76 70
39 103 -25 23 -58 21 -82 -3z"/>
<path d="M6298 1433 c7 -3 16 -2 19 1 4 3 -2 6 -13 5 -11 0 -14 -3 -6 -6z"/>
<path d="M6420 1366 c0 -2 8 -10 18 -17 15 -13 16 -12 3 4 -13 16 -21 21 -21
13z"/>
<path d="M4970 1250 c-39 -39 -14 -100 43 -100 28 0 57 32 57 62 0 24 -35 58
-60 58 -11 0 -29 -9 -40 -20z"/>
<path d="M5292 1254 c-27 -19 -29 -64 -4 -87 21 -19 45 -21 73 -7 39 22 14
110 -32 110 -8 0 -25 -7 -37 -16z"/>
<path d="M5612 1254 c-43 -30 -17 -104 36 -104 42 0 76 54 54 86 -8 12 -46 34
-59 34 -5 0 -19 -7 -31 -16z"/>
<path d="M6001 1174 c0 -11 3 -14 6 -6 3 7 2 16 -1 19 -3 4 -6 -2 -5 -13z"/>
<path d="M6208 963 c7 -3 16 -2 19 1 4 3 -2 6 -13 5 -11 0 -14 -3 -6 -6z"/>
</g>
</svg>
