<?xml version="1.0" standalone="no"?>
<!DOCTYPE svg PUBLIC "-//W3C//DTD SVG 20010904//EN"
 "http://www.w3.org/TR/2001/REC-SVG-20010904/DTD/svg10.dtd">
<svg version="1.0" xmlns="http://www.w3.org/2000/svg"
 width="1024.000000pt" height="1024.000000pt" viewBox="0 0 1024.000000 1024.000000"
 preserveAspectRatio="xMidYMid meet">

<g transform="translate(0.000000,1024.000000) scale(0.100000,-0.100000)"
fill="#000000" stroke="none">
<path d="M2389 9530 c-113 -20 -201 -85 -251 -188 -31 -62 -33 -74 -32 -162 0
-75 5 -105 22 -143 32 -70 102 -140 175 -173 53 -25 75 -29 147 -29 71 0 94 4
141 26 31 15 71 42 90 61 36 36 77 104 68 112 -3 3 -30 8 -61 12 -55 6 -56 6
-95 -33 -100 -100 -267 -73 -328 52 -24 47 -27 64 -23 127 2 48 10 87 24 113
64 124 252 142 337 34 l25 -32 58 11 c31 7 60 14 63 17 11 11 -35 78 -81 120
-71 64 -179 93 -279 75z"/>
<path d="M5370 9186 l0 -346 65 0 65 0 0 120 0 120 83 0 c113 0 153 13 208 69
105 104 83 266 -45 346 -49 30 -51 30 -213 34 l-163 3 0 -346z m296 209 c69
-29 79 -126 17 -175 -21 -16 -41 -20 -104 -20 l-79 0 0 105 0 105 65 0 c36 0
81 -7 101 -15z"/>
<path d="M7015 9518 c-62 -22 -95 -71 -95 -143 l0 -45 -50 0 -50 0 0 -55 0
-55 50 0 50 0 0 -190 0 -190 60 0 60 0 0 190 0 190 70 0 70 0 0 55 0 55 -70 0
-70 0 0 36 c0 31 4 37 35 50 19 7 50 14 70 14 l35 0 0 50 0 50 -67 -1 c-38 0
-81 -5 -98 -11z"/>
<path d="M7274 9522 c-25 -17 -36 -53 -24 -82 30 -72 140 -53 140 25 0 18 -8
39 -18 48 -19 17 -78 23 -98 9z"/>
<path d="M7490 9185 l0 -345 60 0 60 0 0 345 0 345 -60 0 -60 0 0 -345z"/>
<path d="M4240 9400 l0 -70 -45 0 -45 0 0 -55 0 -55 45 0 45 0 0 -122 c0 -141
11 -190 49 -229 34 -33 100 -46 160 -29 l42 11 -3 54 -3 53 -45 -5 c-67 -8
-74 4 -74 145 l-1 117 68 3 67 3 0 54 0 55 -71 0 -70 0 2 68 3 67 -62 3 -62 3
0 -71z"/>
<path d="M3026 9330 c-16 -5 -41 -21 -57 -36 l-27 -26 -4 28 c-3 28 -5 29 -60
32 l-58 3 0 -246 0 -245 65 0 65 0 0 151 c0 88 4 159 11 171 14 26 68 48 119
48 l40 0 0 65 0 65 -32 -1 c-18 0 -46 -5 -62 -9z"/>
<path d="M3310 9327 c-49 -16 -133 -102 -148 -153 -24 -82 -12 -158 37 -236
79 -124 263 -143 365 -39 44 45 43 62 -5 86 -30 16 -32 16 -59 -10 -37 -35
-89 -49 -138 -35 -45 12 -69 35 -82 79 l-9 31 175 0 174 0 0 41 c0 76 -20 130
-69 180 -64 65 -148 85 -241 56z m130 -102 c25 -13 60 -60 60 -80 0 -3 -49 -5
-110 -5 -121 0 -128 4 -89 54 36 46 88 58 139 31z"/>
<path d="M3825 9327 c-56 -22 -75 -38 -95 -78 -16 -29 -17 -40 -8 -43 85 -24
84 -24 106 0 19 22 46 29 97 25 25 -3 65 -46 65 -72 0 -17 -8 -19 -92 -19
-108 0 -150 -16 -185 -69 -27 -40 -31 -117 -8 -161 45 -88 180 -105 265 -33
l30 25 0 -32 0 -31 56 3 56 3 -1 178 c-1 98 -5 185 -8 195 -13 38 -58 85 -97
103 -47 21 -135 24 -181 6z m175 -301 c0 -44 -32 -83 -79 -96 -73 -19 -133 26
-111 85 13 34 41 44 123 44 l67 1 0 -34z"/>
<path d="M4702 9325 c-175 -76 -208 -313 -61 -438 23 -21 61 -42 83 -48 53
-15 133 -6 183 20 37 18 93 73 93 89 0 4 -16 17 -36 30 l-35 23 -30 -25 c-70
-59 -161 -53 -206 13 -41 61 -41 61 147 61 l170 0 0 62 c0 137 -93 229 -231
228 -24 -1 -59 -7 -77 -15z m161 -125 c49 -54 41 -60 -84 -60 -60 0 -109 3
-107 8 25 51 38 67 63 79 44 20 95 9 128 -27z"/>
<path d="M6123 9329 c-17 -5 -41 -20 -51 -34 -26 -33 -32 -31 -32 5 0 30 -1
30 -55 30 l-55 0 0 -245 0 -245 60 0 60 0 0 148 c0 120 3 152 16 171 21 29 72
51 119 51 l35 0 0 65 0 65 -32 -1 c-18 0 -47 -5 -65 -10z"/>
<path d="M6426 9325 c-124 -44 -190 -178 -152 -309 41 -139 183 -215 327 -173
174 52 239 270 120 408 -67 79 -192 111 -295 74z m184 -133 c67 -67 64 -160
-7 -222 -33 -30 -40 -32 -92 -28 -48 4 -59 9 -87 42 -55 64 -54 155 3 208 35
32 47 36 102 37 37 1 49 -4 81 -37z"/>
<path d="M7844 9321 c-97 -44 -150 -136 -142 -248 6 -81 31 -136 87 -186 68
-62 180 -74 268 -28 37 18 93 73 93 89 0 4 -16 17 -36 30 l-35 23 -30 -25
c-70 -59 -161 -53 -206 13 -41 61 -41 61 146 61 l169 0 6 24 c7 30 -8 116 -29
155 -48 93 -190 138 -291 92z m167 -117 c15 -14 29 -35 32 -45 5 -18 -2 -19
-109 -19 l-115 0 15 28 c15 29 42 56 66 65 29 12 83 -2 111 -29z"/>
<path d="M7250 9085 l0 -245 65 0 65 0 0 245 0 245 -65 0 -65 0 0 -245z"/>
<path d="M3412 7791 c-63 -22 -131 -84 -164 -150 -23 -46 -23 -49 -26 -543 -3
-480 -2 -497 16 -502 11 -4 27 -4 36 0 14 6 16 50 16 476 0 342 3 482 12 512
16 54 90 128 144 144 32 9 454 12 1851 12 l1809 0 55 -27 c66 -34 105 -87 119
-163 7 -37 9 -823 8 -2325 l-3 -2270 -22 -40 c-25 -47 -65 -86 -113 -110 -32
-17 -84 -18 -673 -19 -555 -1 -639 -3 -647 -16 -13 -21 -13 -25 9 -44 17 -15
69 -16 652 -14 l634 3 69 34 c50 24 76 45 99 78 67 94 62 -109 65 2388 2 1578
-1 2291 -8 2340 -13 81 -44 139 -100 188 -85 72 63 67 -1964 67 -1743 -1
-1823 -1 -1874 -19z"/>
<path d="M5175 7166 c-60 -28 -138 -109 -168 -174 -16 -36 -21 -67 -22 -133 0
-79 3 -92 35 -154 65 -128 193 -201 309 -177 135 29 238 150 249 293 11 153
-75 298 -211 357 -47 20 -136 15 -192 -12z"/>
<path d="M7800 6966 c0 -2 8 -10 18 -17 15 -13 16 -12 3 4 -13 16 -21 21 -21
13z"/>
<path d="M2865 6426 c-74 -19 -120 -41 -190 -91 -82 -58 -137 -122 -181 -209
-20 -39 -51 -90 -70 -114 -109 -139 -96 -420 32 -661 19 -36 66 -109 105 -161
87 -117 109 -161 109 -225 0 -43 -50 -271 -65 -295 -3 -4 -17 -11 -31 -14 -65
-17 -308 -112 -397 -157 -361 -180 -582 -464 -686 -884 -77 -312 -189 -1139
-178 -1320 10 -172 85 -329 210 -438 34 -30 113 -89 175 -131 l112 -77 0 -189
c0 -104 4 -191 9 -194 5 -4 7 -91 4 -206 l-6 -200 1071 0 1072 0 -1 43 c0 23
-8 113 -18 200 -9 87 -15 160 -12 163 3 2 4 293 2 646 l-3 642 54 -59 c161
-178 332 -323 438 -374 49 -23 67 -26 166 -26 l112 0 136 68 c164 82 203 112
639 499 281 251 327 295 327 319 0 15 -4 31 -10 34 -17 11 -11 20 40 59 66 51
143 148 199 254 44 82 48 87 89 97 58 13 92 48 92 91 0 37 -31 74 -63 74 -14
0 -17 4 -12 18 28 64 7 112 -48 112 -24 0 -28 3 -22 18 34 82 4 122 -90 122
-25 0 -45 2 -45 5 0 14 46 95 77 136 l35 47 42 -28 c66 -43 125 -62 216 -67
148 -9 264 35 367 138 178 179 175 477 -7 659 -246 246 -667 141 -772 -193
-33 -108 -19 -277 31 -362 l18 -30 -95 -100 c-165 -176 -299 -367 -403 -578
l-42 -85 -38 5 c-35 5 -53 -4 -211 -104 -295 -188 -498 -313 -506 -313 -4 0
-128 202 -276 450 -315 527 -382 632 -465 722 -107 116 -279 229 -486 318
l-110 47 2 89 c2 49 9 114 16 144 11 45 16 55 32 52 133 -19 191 -11 252 35
66 48 116 172 129 318 6 70 7 72 40 84 39 14 74 55 74 86 0 13 -16 47 -36 76
-54 78 -84 149 -89 215 -9 97 -35 286 -46 328 -10 37 -9 40 25 68 19 16 49 58
67 93 29 59 31 70 28 144 -4 75 -6 83 -36 113 -31 31 -36 32 -95 28 -148 -9
-257 -4 -377 18 -140 25 -342 29 -426 8z m3673 -1868 c7 -7 12 -20 12 -30 0
-24 -190 -250 -234 -277 -43 -27 -52 -23 -124 53 -55 58 -64 87 -35 118 25 28
52 22 92 -24 l38 -42 103 107 c100 105 124 119 148 95z"/>
<path d="M5115 6384 c-143 -32 -274 -101 -388 -204 l-58 -53 53 -54 c95 -98
221 -171 359 -209 90 -25 309 -26 399 -1 132 36 286 125 374 215 l38 40 -21
30 c-28 40 -152 133 -226 170 -113 56 -188 74 -330 78 -93 3 -150 -1 -200 -12z"/>
<path d="M8204 5978 l-19 -23 23 19 c21 18 27 26 19 26 -2 0 -12 -10 -23 -22z"/>
<path d="M8409 5763 c-13 -16 -12 -17 4 -4 16 13 21 21 13 21 -2 0 -10 -8 -17
-17z"/>
<path d="M4306 5559 c-31 -24 -34 -57 -7 -90 l19 -24 1045 0 c880 0 1047 2
1061 14 27 23 18 92 -14 108 -20 10 -247 13 -1051 13 -1023 0 -1026 0 -1053
-21z"/>
<path d="M1523 5195 c-66 -28 -92 -118 -53 -182 68 -112 240 -64 240 67 0 56
-26 95 -76 116 -42 17 -70 17 -111 -1z"/>
<path d="M5502 1750 c-47 -29 -72 -76 -72 -135 0 -93 62 -155 155 -155 64 0
108 26 136 81 40 79 10 177 -65 213 -47 22 -114 20 -154 -4z"/>
<path d="M7980 1374 c-36 -7 -103 -32 -150 -55 -69 -34 -102 -59 -176 -133
-104 -105 -118 -131 -84 -158 21 -17 55 -18 535 -18 483 0 513 1 528 18 10 10
17 26 17 36 0 10 -44 61 -97 115 -82 82 -112 105 -183 140 -138 67 -257 84
-390 55z"/>
</g>
</svg>
