<?xml version="1.0" standalone="no"?>
<!DOCTYPE svg PUBLIC "-//W3C//DTD SVG 20010904//EN"
 "http://www.w3.org/TR/2001/REC-SVG-20010904/DTD/svg10.dtd">
<svg version="1.0" xmlns="http://www.w3.org/2000/svg"
 width="1024.000000pt" height="1024.000000pt" viewBox="0 0 1024.000000 1024.000000"
 preserveAspectRatio="xMidYMid meet">

<g transform="translate(0.000000,1024.000000) scale(0.100000,-0.100000)"
fill="#000000" stroke="none">
<path d="M2255 8639 c-275 -40 -516 -214 -639 -464 -58 -115 -76 -185 -83
-315 -14 -262 65 -468 252 -656 83 -83 115 -108 190 -146 112 -57 205 -86 317
-97 175 -17 364 24 510 111 l70 41 211 -210 c117 -116 222 -216 234 -222 52
-26 138 -5 160 41 21 44 23 60 12 102 -9 34 -45 76 -220 251 -115 116 -209
215 -209 221 0 5 12 27 26 48 159 234 182 554 59 815 -160 337 -523 533 -890
480z m301 -240 c110 -33 182 -77 264 -159 128 -128 184 -264 182 -445 -1 -175
-62 -317 -186 -440 -126 -125 -262 -179 -446 -178 -134 1 -236 31 -343 103
-124 83 -204 188 -251 331 -35 103 -39 245 -13 348 62 233 273 424 511 462 76
12 205 2 282 -22z"/>
<path d="M5642 8348 c-7 -7 -12 -26 -12 -43 0 -38 16 -55 51 -55 49 0 73 45
49 91 -12 22 -68 27 -88 7z"/>
<path d="M5966 8344 c-19 -18 -21 -65 -4 -82 20 -20 76 -15 88 7 32 61 -37
123 -84 75z"/>
<path d="M6298 8348 c-30 -24 -31 -56 -3 -83 18 -19 31 -24 48 -20 47 15 61
61 27 95 -23 23 -49 26 -72 8z"/>
<path d="M6632 8353 c-21 -8 -34 -51 -22 -73 26 -48 93 -45 106 5 12 50 -34
88 -84 68z"/>
<path d="M6950 8330 c-24 -24 -25 -38 -4 -68 19 -28 57 -29 84 -2 24 24 25 38
4 68 -19 28 -57 29 -84 2z"/>
<path d="M5647 8032 c-20 -22 -22 -63 -5 -80 20 -20 76 -15 88 7 15 29 12 56
-8 74 -24 22 -55 21 -75 -1z"/>
<path d="M5652 7714 c-26 -18 -30 -65 -6 -88 47 -48 123 23 82 76 -20 25 -51
30 -76 12z"/>
<path d="M5647 7392 c-34 -37 -8 -102 40 -102 21 0 53 38 53 63 0 49 -61 74
-93 39z"/>
<path d="M6395 7246 c-60 -28 -97 -66 -124 -126 -20 -44 -21 -63 -21 -683 0
-540 -2 -643 -15 -673 -14 -34 -275 -393 -285 -393 -3 0 -21 28 -40 62 -46 82
-177 213 -265 265 -338 200 -762 145 -1026 -134 -111 -118 -166 -221 -209
-391 l-11 -43 -380 0 c-243 0 -387 -4 -400 -10 -21 -12 -25 -40 -7 -58 9 -9
110 -12 395 -12 l383 0 0 -64 c0 -317 202 -616 502 -742 120 -51 219 -68 362
-61 280 12 480 125 661 371 l20 28 115 -142 c63 -78 133 -166 155 -197 l40
-54 5 -367 5 -367 25 -45 c30 -52 96 -105 150 -120 26 -7 457 -9 1327 -8
l1290 3 48 30 c65 40 111 102 124 167 8 37 11 576 9 1828 -3 1709 -4 1776 -22
1810 -26 49 -74 98 -121 123 l-40 22 -1300 2 -1300 3 -50 -24z m2648 -70 c39
-16 82 -61 96 -99 8 -20 11 -573 11 -1803 0 -1742 0 -1776 -20 -1813 -24 -48
-70 -87 -118 -101 -52 -14 -2503 -14 -2555 1 -39 11 -99 57 -120 93 -8 15 -13
127 -17 386 -4 321 -7 369 -23 400 -9 19 -86 121 -171 227 l-153 191 23 71
c28 86 47 244 38 326 -3 33 -15 100 -26 148 l-20 88 146 194 c81 107 156 214
166 237 19 41 20 72 20 681 0 688 -1 677 53 736 49 52 -13 50 1360 51 1063 0
1283 -2 1310 -14z m-3414 -1882 c44 -55 40 -61 -226 -338 -137 -142 -257 -259
-270 -262 -48 -12 -78 8 -210 139 -138 136 -151 158 -119 199 19 25 62 39 89
29 12 -5 63 -48 114 -95 50 -47 93 -86 96 -86 4 0 192 190 388 392 38 40 52
48 82 48 27 0 41 -7 56 -26z"/>
<path d="M7115 6823 c-33 -9 -65 -35 -81 -64 -12 -24 -14 -126 -14 -644 0
-680 -2 -657 63 -692 30 -17 78 -18 647 -18 673 0 660 -1 703 59 l22 31 3 610
c3 682 5 657 -68 700 -34 19 -51 20 -645 21 -335 1 -619 0 -630 -3z m813 -349
c25 -17 31 -71 10 -92 -9 -9 -88 -12 -294 -12 -310 0 -307 -1 -307 62 0 56 10
58 303 58 224 0 269 -2 288 -16z m240 -286 c18 -18 14 -73 -7 -92 -17 -15 -54
-16 -406 -14 l-387 3 -19 24 c-19 24 -18 51 3 79 15 17 798 18 816 0z m-240
-280 c16 -16 16 -80 0 -96 -9 -9 -86 -12 -285 -12 -260 0 -274 1 -293 20 -24
24 -25 48 -4 78 15 22 17 22 293 22 202 0 280 -3 289 -12z"/>
<path d="M7990 4830 l0 -280 45 0 c42 0 45 2 45 27 l0 26 23 -21 c50 -47 141
-51 205 -9 39 27 82 108 82 157 0 57 -27 133 -57 162 -43 39 -66 48 -132 48
-49 0 -65 -4 -90 -26 l-31 -26 0 111 0 111 -45 0 -45 0 0 -280z m263 10 c82
-64 42 -210 -57 -210 -65 1 -106 45 -106 115 0 93 95 148 163 95z"/>
<path d="M7350 4877 c0 -207 0 -208 -25 -232 -13 -14 -36 -25 -50 -25 -29 0
-85 49 -85 74 0 13 -5 13 -45 -1 -39 -13 -45 -18 -39 -37 12 -38 56 -88 92
-103 49 -20 143 -13 180 13 57 42 62 68 62 307 l0 217 -45 -2 -45 -3 0 -208z"/>
<path d="M7632 4924 c-88 -45 -132 -152 -101 -245 28 -84 102 -138 187 -139
195 -1 274 241 119 364 -32 26 -48 31 -105 34 -48 2 -76 -2 -100 -14z m151
-85 c61 -47 58 -161 -6 -199 -43 -27 -80 -25 -116 6 -49 41 -60 116 -25 169
33 47 104 59 147 24z"/>
<path d="M7581 4323 c-39 -19 -61 -64 -61 -123 0 -39 -1 -40 -35 -40 -34 0
-35 -1 -35 -40 0 -39 1 -40 35 -40 l35 0 0 -155 0 -155 45 0 45 0 0 155 0 155
50 0 50 0 0 40 0 40 -50 0 -50 0 0 33 c0 43 26 67 73 67 35 0 37 2 37 34 0 26
-5 35 -22 40 -39 10 -82 6 -117 -11z"/>
<path d="M7885 4326 c-49 -22 -68 -51 -73 -111 -4 -54 -5 -55 -36 -55 -30 0
-31 -2 -31 -40 0 -38 1 -40 33 -40 l32 0 0 -155 0 -155 45 0 45 0 0 155 0 155
50 0 50 0 0 40 0 40 -50 0 c-48 0 -50 1 -50 28 0 15 7 38 16 51 13 19 24 22
55 19 39 -4 39 -3 39 33 0 30 -4 38 -22 43 -35 9 -70 6 -103 -8z"/>
<path d="M7030 4311 c-76 -23 -128 -71 -163 -151 -28 -63 -27 -168 3 -238 53
-124 196 -188 332 -148 129 37 193 127 193 271 0 70 -4 87 -30 134 -35 63 -82
105 -144 126 -46 16 -148 19 -191 6z m200 -111 c67 -48 92 -177 51 -259 -49
-95 -187 -119 -277 -49 -85 68 -82 245 6 308 59 42 161 42 220 0z"/>
<path d="M8145 4156 c-94 -41 -141 -174 -96 -271 63 -135 233 -165 333 -59
l27 29 -40 23 c-34 20 -40 21 -45 7 -8 -21 -56 -45 -89 -45 -39 0 -83 26 -100
60 l-16 30 152 0 151 0 -7 53 c-8 57 -33 113 -62 139 -49 45 -147 61 -208 34z
m146 -95 c50 -50 41 -56 -70 -53 -92 3 -98 5 -94 23 9 32 52 59 95 59 30 0 46
-7 69 -29z"/>
<path d="M8640 4163 c-8 -3 -27 -17 -42 -31 l-28 -26 0 27 c0 25 -3 27 -40 27
l-40 0 0 -195 0 -195 44 0 44 0 4 131 c3 130 3 131 32 156 23 19 38 24 68 21
l38 -4 0 48 c0 48 0 48 -32 47 -18 0 -40 -3 -48 -6z"/>
<path d="M1242 6563 c-65 -19 -132 -77 -164 -141 l-23 -47 0 -1845 c0 -1694 1
-1848 17 -1881 25 -57 83 -114 138 -138 l49 -21 1318 2 c1263 3 1319 4 1353
22 49 26 98 74 123 121 l22 40 3 1048 c2 719 -1 1054 -8 1067 -12 22 -40 26
-58 8 -9 -9 -12 -257 -12 -1055 0 -892 -2 -1048 -14 -1072 -22 -41 -80 -88
-123 -100 -26 -7 -452 -11 -1306 -11 -1398 0 -1306 -4 -1375 63 -18 17 -37 47
-42 67 -6 22 -10 687 -10 1843 0 1965 -3 1845 53 1905 56 60 -1 57 986 62 847
5 905 6 915 23 8 12 8 22 0 35 -11 16 -65 17 -900 19 -778 1 -896 -1 -942 -14z"/>
<path d="M3618 6570 c-10 -6 -18 -19 -18 -28 0 -35 21 -42 135 -42 86 0 119
-5 150 -19 47 -22 89 -64 104 -104 7 -19 11 -196 11 -516 0 -495 1 -511 36
-511 7 0 20 7 28 16 14 14 16 72 16 493 0 538 -1 545 -70 623 -63 72 -113 91
-255 95 -75 2 -127 0 -137 -7z"/>
<path d="M2487 5879 c-151 -36 -246 -178 -235 -353 18 -284 315 -422 506 -236
116 112 134 315 41 461 -62 97 -201 154 -312 128z"/>
<path d="M2468 5089 c-158 -17 -298 -83 -419 -197 -46 -43 -79 -82 -77 -91 5
-27 130 -120 223 -166 114 -55 184 -74 312 -82 225 -14 437 58 589 200 l56 52
-23 29 c-39 49 -166 144 -242 179 -88 42 -164 64 -242 72 -33 3 -71 7 -85 9
-14 1 -55 -1 -92 -5z"/>
<path d="M2748 4264 c-36 -19 -48 -43 -48 -98 0 -44 -1 -46 -30 -46 -28 0 -30
-3 -30 -35 0 -32 2 -35 30 -35 l30 0 0 -135 0 -135 40 0 40 0 0 135 0 135 45
0 c45 0 45 0 45 35 0 35 0 35 -45 35 -44 0 -45 1 -45 33 0 18 5 38 12 45 7 7
27 12 45 12 31 0 33 2 33 35 l0 35 -47 0 c-27 -1 -60 -7 -75 -16z"/>
<path d="M2918 4269 c-36 -20 -12 -89 30 -89 10 0 28 7 40 16 57 40 -9 109
-70 73z"/>
<path d="M3080 4025 l0 -245 40 0 40 0 0 245 0 245 -40 0 -40 0 0 -245z"/>
<path d="M1620 4020 l0 -240 40 0 40 0 0 79 0 78 71 6 c118 10 177 54 186 140
8 67 -25 129 -81 156 -35 17 -62 21 -149 21 l-107 0 0 -240z m209 155 c31 -16
41 -33 41 -71 0 -58 -51 -94 -130 -94 l-40 0 0 90 0 90 50 0 c28 0 64 -7 79
-15z"/>
<path d="M2150 4119 c-13 -6 -33 -17 -42 -26 -17 -15 -18 -15 -18 5 0 19 -6
22 -40 22 l-40 0 0 -170 0 -170 40 0 40 0 0 101 c0 133 19 168 93 169 37 0 37
1 37 40 0 35 -3 40 -22 39 -13 0 -34 -5 -48 -10z"/>
<path d="M3325 4112 c-110 -52 -138 -188 -58 -283 65 -77 194 -79 262 -6 l24
26 -24 20 c-31 26 -33 26 -63 -4 -37 -37 -98 -35 -137 4 -16 16 -29 34 -29 40
0 7 45 11 134 11 l133 0 -8 51 c-15 95 -62 144 -150 154 -31 4 -56 0 -84 -13z
m116 -65 c15 -11 39 -49 39 -61 0 -3 -40 -6 -90 -6 -58 0 -90 4 -90 11 0 6 13
24 29 40 32 31 82 39 112 16z"/>
<path d="M2332 4103 c-54 -26 -76 -68 -80 -148 -3 -60 0 -75 20 -105 54 -81
186 -105 262 -46 53 40 69 77 64 151 -4 70 -35 123 -88 150 -38 20 -136 19
-178 -2z m139 -63 c27 -15 49 -62 49 -105 0 -27 -8 -44 -29 -66 -66 -65 -161
-15 -161 86 0 70 80 117 141 85z"/>
<path d="M2915 3950 l0 -170 43 0 42 0 0 170 0 170 -42 0 -43 0 0 -170z"/>
<path d="M7091 2973 c-19 -10 -44 -31 -55 -46 -21 -28 -21 -36 -21 -785 l0
-757 25 -44 c14 -24 38 -54 53 -65 28 -21 37 -21 720 -24 472 -2 704 0 729 8
20 6 46 22 57 37 21 25 21 36 21 597 0 526 -2 573 -18 592 -29 36 -57 44 -159
44 -64 0 -103 4 -111 12 -8 8 -12 50 -12 121 0 60 -5 127 -12 149 -16 56 -78
121 -140 149 l-53 24 -495 3 c-457 2 -498 1 -529 -15z m1139 -743 c24 -24 25
-47 3 -72 -15 -17 -41 -18 -421 -18 -363 0 -407 2 -424 17 -23 21 -24 69 0 82
11 7 165 11 420 11 389 0 403 -1 422 -20z m-246 -362 c21 -30 20 -54 -4 -78
-19 -19 -33 -20 -302 -20 -248 0 -284 2 -300 17 -20 18 -24 73 -6 91 9 9 90
12 304 12 291 0 293 0 308 -22z"/>
<path d="M4497 2522 c-35 -38 -13 -92 36 -92 40 0 57 15 57 51 0 53 -59 79
-93 41z"/>
<path d="M4502 2214 c-28 -19 -29 -57 -2 -84 24 -24 38 -25 68 -4 40 28 21
104 -26 104 -10 0 -28 -7 -40 -16z"/>
<path d="M4502 1904 c-28 -19 -29 -57 -2 -84 24 -24 38 -25 68 -4 40 28 21
104 -26 104 -10 0 -28 -7 -40 -16z"/>
<path d="M3282 1728 c-29 -29 -4 -98 36 -98 50 0 80 61 46 94 -18 19 -65 21
-82 4z"/>
<path d="M3594 1715 c-9 -14 -13 -32 -9 -45 15 -47 86 -50 107 -5 27 59 -62
105 -98 50z"/>
<path d="M3910 1721 c-23 -43 2 -91 47 -91 42 0 71 68 41 98 -20 20 -76 15
-88 -7z"/>
<path d="M4224 1715 c-9 -14 -13 -32 -9 -45 15 -47 86 -50 107 -5 27 59 -62
105 -98 50z"/>
</g>
</svg>
